<svg xmlns="http://www.w3.org/2000/svg" width="19" height="11" fill="none"><path fill="#fff" d="M13.872 8.218a.803.803 0 0 1-.79-.813c0-.448.354-.813.79-.813.437 0 .792.365.792.813a.803.803 0 0 1-.792.813Zm-8.744 0a.803.803 0 0 1-.792-.813c0-.448.355-.813.792-.813.436 0 .79.365.79.813a.803.803 0 0 1-.79.813Zm9.028-4.897L15.737.507a.347.347 0 0 0-.12-.462.322.322 0 0 0-.25-.033.33.33 0 0 0-.2.157l-1.6 2.85A9.54 9.54 0 0 0 9.5 2.124a9.54 9.54 0 0 0-4.067.893l-1.6-2.85a.33.33 0 0 0-.2-.156.322.322 0 0 0-.25.033.346.346 0 0 0-.12.462l1.58 2.814C2.13 4.838.273 7.663 0 11h19c-.272-3.337-2.129-6.162-4.844-7.68"/></svg>