<svg xmlns="http://www.w3.org/2000/svg" width="22" height="13" fill="none"><path fill="#fff" d="M16.063 9.712c-.505 0-.916-.43-.916-.96s.41-.961.916-.961c.505 0 .916.43.916.96s-.411.961-.916.961Zm-10.126 0c-.505 0-.916-.43-.916-.96s.411-.961.916-.961c.505 0 .916.43.916.96s-.41.961-.916.961Zm10.454-5.787L18.222.599c.05-.092.064-.2.038-.303a.398.398 0 0 0-.177-.243.366.366 0 0 0-.29-.04.384.384 0 0 0-.23.187l-1.854 3.367A10.86 10.86 0 0 0 11 2.511a10.86 10.86 0 0 0-4.709 1.056L4.438.2a.384.384 0 0 0-.232-.186.366.366 0 0 0-.289.04.398.398 0 0 0-.177.242.417.417 0 0 0 .038.303l1.83 3.326C2.466 5.718.316 9.056 0 13h22c-.315-3.944-2.465-7.282-5.609-9.075"/></svg>