<svg width="81" height="29" viewBox="0 0 81 29" fill="none" xmlns="http://www.w3.org/2000/svg">
<path d="M76.2052 28.1466C76.7336 28.3073 77.2922 28.0092 77.4529 27.4808L80.0716 18.8702C80.2323 18.3418 79.9342 17.7832 79.4058 17.6225C78.8774 17.4618 78.3188 17.7599 78.1581 18.2883L75.8304 25.9422L68.1765 23.6145C67.6481 23.4538 67.0895 23.7519 66.9288 24.2803C66.7681 24.8087 67.0662 25.3673 67.5946 25.528L76.2052 28.1466ZM2.28339 24.4746C14.231 6.65956 28.9575 0.806747 42.3994 2.62746C55.9095 4.45741 68.361 14.0684 75.6139 27.6606L77.3784 26.7191C69.8838 12.6738 56.9329 2.57776 42.6678 0.645553C28.3345 -1.2959 12.9131 5.03394 0.622351 23.3606L2.28339 24.4746Z" fill="url(#paint0_linear_74_6094)"/>
<defs>
<linearGradient id="paint0_linear_74_6094" x1="26.4458" y1="31.7161" x2="61.1779" y2="7.39649" gradientUnits="userSpaceOnUse">
<stop stop-color="#800BF5"/>
<stop offset="1" stop-color="#25C6F9"/>
</linearGradient>
</defs>
</svg>
