<svg width="233" height="120" viewBox="0 0 233 120" fill="none" xmlns="http://www.w3.org/2000/svg">
<path d="M224.283 119.298C224.674 119.689 225.307 119.689 225.697 119.298L232.061 112.934C232.452 112.544 232.452 111.911 232.061 111.52C231.671 111.13 231.037 111.13 230.647 111.52L224.99 117.177L219.333 111.52C218.943 111.13 218.31 111.13 217.919 111.52C217.529 111.911 217.528 112.544 217.919 112.934L224.283 119.298ZM2.00803 33.3618C67.5304 -5.27995 123.026 -3.33054 162.091 17.8652C201.204 39.0874 223.99 79.6671 223.99 118.591L225.99 118.591C225.99 78.9241 202.794 37.6747 163.044 16.1073C123.246 -5.48637 66.9961 -7.28673 0.992048 31.6391L2.00803 33.3618Z" fill="url(#paint0_linear_70_1468)"/>
<defs>
<linearGradient id="paint0_linear_70_1468" x1="79.6419" y1="23.338" x2="224.435" y2="106.934" gradientUnits="userSpaceOnUse">
<stop stop-color="#800BF5"/>
<stop offset="1" stop-color="#25C6F9"/>
</linearGradient>
</defs>
</svg>
