<svg width="81" height="29" viewBox="0 0 81 29" fill="none" xmlns="http://www.w3.org/2000/svg">
<path d="M76.2052 0.267941C76.7336 0.107247 77.2922 0.405324 77.4529 0.933712L80.0716 9.54432C80.2323 10.0727 79.9342 10.6313 79.4058 10.792C78.8774 10.9527 78.3188 10.6546 78.1581 10.1262L75.8304 2.47237L68.1765 4.80006C67.6481 4.96075 67.0895 4.66267 66.9288 4.13428C66.7681 3.60589 67.0662 3.04728 67.5946 2.88659L76.2052 0.267941ZM2.28339 3.93995C14.231 21.755 28.9575 27.6078 42.3994 25.7871C55.9095 23.9571 68.361 14.3462 75.6139 0.753902L77.3784 1.69545C69.8838 15.7408 56.9329 25.8368 42.6678 27.769C28.3345 29.7105 12.9131 23.3806 0.622351 5.05392L2.28339 3.93995Z" fill="url(#paint0_linear_74_6086)"/>
<defs>
<linearGradient id="paint0_linear_74_6086" x1="26.4458" y1="-3.30158" x2="61.1779" y2="21.0181" gradientUnits="userSpaceOnUse">
<stop stop-color="#800BF5"/>
<stop offset="1" stop-color="#25C6F9"/>
</linearGradient>
</defs>
</svg>
