<svg xmlns="http://www.w3.org/2000/svg" width="85" height="147" fill="none">
  <path fill="url(#a)" d="M61.392 145.914a1 1 0 0 0 1.129.852l8.913-1.245a1 1 0 0 0-.276-1.981l-7.923 1.107-1.107-7.923a1.001 1.001 0 0 0-1.98.276l1.244 8.914ZM.935 2.616c44.695 7.252 69.381 30.2 78.18 57.548 8.818 27.407 1.756 59.46-17.53 85.009l1.596 1.205c19.604-25.97 26.89-58.69 17.838-86.827C71.947 31.356 46.544 7.991 1.255.642l-.32 1.974Z"/>
  <defs>
    <linearGradient id="a" x1="8.848" x2="85.959" y1="55.4" y2="99.92" gradientUnits="userSpaceOnUse">
      <stop stop-color="#800BF5"/>
      <stop offset="1" stop-color="#25C6F9"/>
    </linearGradient>
  </defs>
</svg>
