<svg width="83" height="50" viewBox="0 0 83 50" fill="none" xmlns="http://www.w3.org/2000/svg">
<path d="M81.4009 14.6665C81.9532 14.6665 82.4009 14.2188 82.4009 13.6665L82.4009 4.66651C82.4009 4.11423 81.9532 3.66651 81.4009 3.66652C80.8486 3.66652 80.4009 4.11423 80.4009 4.66652L80.4009 12.6665L72.4009 12.6665C71.8486 12.6665 71.4009 13.1142 71.4009 13.6665C71.4009 14.2188 71.8486 14.6665 72.4009 14.6665L81.4009 14.6665ZM2.65489 49.2955C9.53199 22.6463 24.1873 9.06193 39.4496 4.53617C54.7648 -0.00528407 70.8382 4.51806 80.6938 14.3736L82.108 12.9594C71.7271 2.57847 54.8903 -2.12856 38.881 2.6187C22.8187 7.38167 7.73515 21.6051 0.71833 48.7958L2.65489 49.2955Z" fill="url(#paint0_linear_209_1987)"/>
<defs>
<linearGradient id="paint0_linear_209_1987" x1="19.4482" y1="26.5656" x2="78.2565" y2="10.8079" gradientUnits="userSpaceOnUse">
<stop stop-color="#800BF5"/>
<stop offset="1" stop-color="#25C6F9"/>
</linearGradient>
</defs>
</svg>
