<svg width="108" height="128" viewBox="0 0 108 128" fill="none" xmlns="http://www.w3.org/2000/svg">
<path d="M8.49566 127.657C9.62241 127.657 10.7064 127.571 11.662 127.492C12.0899 127.456 12.4821 127.427 12.8529 127.405C16.9392 127.175 20.9327 126.414 24.7908 125.674C29.7399 124.733 36.6787 123.024 42.8973 121.228C43.7245 120.991 44.402 120.445 44.8156 119.684C45.2292 118.929 45.3291 118.053 45.0937 117.227C44.7015 115.848 43.4321 114.886 42.013 114.886C41.7135 114.886 41.414 114.929 41.1216 115.015C35.0884 116.767 28.3707 118.412 23.5999 119.325C19.9415 120.021 16.1547 120.74 12.4892 120.948C12.0756 120.969 11.6192 121.005 11.1414 121.048C10.3569 121.113 9.37282 121.192 8.45287 121.192C7.91089 121.192 7.44022 121.163 7.05513 121.106C8.90215 117.608 10.9845 114.153 12.9955 110.806C16.2902 105.339 19.6919 99.6864 22.3091 93.4947C23.5 90.6718 24.5769 87.7484 25.4968 84.8106L25.5824 84.552C26.1885 82.6844 27.3153 79.2007 25.126 77.0745C24.5982 76.5574 23.6712 75.9468 22.2806 75.9468C21.6601 75.9468 21.0112 76.0689 20.3337 76.3203C16.5969 77.6923 12.7103 78.5399 8.75239 78.8415C8.94493 78.6117 9.15175 78.3675 9.37282 78.1161C13.6302 73.3035 17.417 68.1102 20.6403 62.6799L21.76 60.798C24.313 56.5242 26.9516 52.1139 28.927 47.4521C29.4903 46.1233 30.5387 43.6452 29.854 40.9516C29.6187 40.0106 29.1338 39.2636 28.4206 38.7392C27.7931 38.2795 27.0657 38.0425 26.2598 38.0425C26.0245 38.0425 25.7749 38.064 25.5324 38.1071L23.8281 38.3945C20.947 38.8829 17.9804 39.3857 15.1064 39.5581C16.5969 35.4063 20.8329 27.2537 22.2948 24.4237C23.1506 22.7716 23.8281 21.4715 24.1704 20.7316C24.3201 20.4156 24.5341 19.92 24.7979 19.295C29.0125 9.52625 31.209 7.17024 31.9364 6.61716C32.293 6.86856 32.7137 7.27081 33.0988 7.63714C33.9118 8.40571 35.8729 9.93567 39.5527 12.8017C44.1952 16.4147 56.0689 25.6591 60.2122 30.0048C57.5237 31.0032 54.6212 31.7431 51.8115 32.4614L50.1499 32.8851C49.0659 33.1653 48.2601 33.7543 47.7537 34.6306C47.3116 35.4063 47.169 36.2827 47.3259 37.2452C47.7751 39.9891 49.7291 41.8279 50.7774 42.8191C54.4429 46.2813 58.6219 49.2479 62.6582 52.1139L64.4553 53.3924C69.5828 57.0557 75.1167 60.2665 80.9145 62.9385C81.2211 63.0822 81.5135 63.2187 81.7916 63.3623C78.0477 64.6912 74.154 65.4957 70.1889 65.7542C67.5004 65.9266 66.4806 67.4781 66.1098 68.3904C64.9617 71.2205 67.3863 73.9572 68.6914 75.4225L68.8696 75.6236C70.895 77.9365 73.0415 80.1776 75.2593 82.275C80.13 86.8792 85.5071 90.6718 90.713 94.3351C93.8935 96.5762 97.1882 98.8963 100.269 101.353C99.2492 101.999 97.6446 102.56 96.5107 102.955C96.0543 103.113 95.6193 103.264 95.2342 103.414C91.7969 104.714 88.0458 105.591 84.416 106.438C77.3631 108.083 64.8904 110.13 57.0387 110.554C55.2702 110.648 53.9152 112.178 54.0079 113.959C54.1006 115.676 55.5055 117.019 57.2028 117.019C57.2598 117.019 57.324 117.019 57.381 117.019C65.575 116.573 78.5469 114.455 85.8636 112.745C89.7003 111.847 93.6582 110.928 97.4877 109.477C97.8158 109.355 98.1724 109.225 98.5503 109.096C101.253 108.155 104.876 106.891 106.616 103.932C108.014 101.554 107.122 98.5802 104.334 96.3607C101.075 93.7677 97.6732 91.3686 94.3927 89.0557C89.3723 85.5217 84.1878 81.8584 79.6522 77.5774C77.741 75.7673 75.8798 73.8494 74.1255 71.8669C78.7109 71.2348 83.1823 69.9634 87.4397 68.0815C87.7677 67.9379 88.4452 67.6362 89.0514 67.0041C90.0925 65.9194 90.5133 64.5403 90.2494 63.1181C89.8287 60.8698 87.782 59.0095 83.6101 57.0916C78.1618 54.5848 72.9702 51.5751 68.1779 48.1489L66.3665 46.8631C62.5584 44.1552 58.629 41.361 55.313 38.2652C58.4008 37.4607 61.4031 36.5987 64.2842 35.3704C64.9331 35.0975 66.6518 34.3576 67.4933 32.4685C68.7627 29.6097 66.9014 26.9377 58.8501 20.0492C54.0436 15.9334 47.9534 11.1999 43.5106 7.7377C40.7222 5.56846 38.1335 3.55005 37.5202 2.97541C36.5789 2.08473 35.4094 0.978559 33.8048 0.382375C33.1915 0.152522 32.564 0.0375977 31.9435 0.0375977C26.5879 0.0375977 22.4161 8.67148 18.9217 16.7595C18.6792 17.3269 18.4938 17.7507 18.3654 18.0308C18.0802 18.6414 17.4027 19.9487 16.6183 21.4643C7.97507 38.1071 6.7057 42.2445 9.47979 44.7729C10.4639 45.6708 11.769 46.1305 13.345 46.1305H13.5874C16.711 46.0874 19.806 45.6564 22.9509 45.1392C21.1538 49.3341 18.6721 53.4858 16.2688 57.5082L15.1349 59.4045C12.1184 64.49 8.57411 69.3457 4.60195 73.8422C1.5426 77.3044 0.408714 79.84 0.922173 82.0667C1.25021 83.4817 2.19155 84.5735 3.57504 85.141C4.38801 85.4714 5.12254 85.4714 5.4791 85.4714C10.1287 85.4714 14.7356 84.8177 19.1784 83.532C18.3583 86.0604 17.4312 88.5744 16.4043 91.0023C13.9654 96.7701 10.685 102.215 7.51154 107.487C5.42205 110.949 3.27551 114.519 1.33579 118.211C-0.325813 121.372 0.0450134 124.453 2.27712 126.062C3.7961 127.154 5.82854 127.685 8.49566 127.685V127.657Z" fill="#49CBF4"/>
</svg>
