<svg width="109" height="130" fill="none" xmlns="http://www.w3.org/2000/svg"><path d="M32.95 1.727c-4.892 0-8.92 8.31-12.365 16.291-.243.56-.428.998-.564 1.286-.292.625-.97 1.94-1.761 3.462-8.337 16.047-9.699 20.241-7.288 22.432 1.184 1.078 2.638 1.171 3.387 1.171h.228c3.566-.05 7.089-.61 10.512-1.192-.121.344-.264.69-.4 1.02-1.818 4.295-4.35 8.533-6.803 12.642l-1.134 1.896A95.902 95.902 0 0 1 6.151 75.28c-2.895 3.276-3.972 5.61-3.516 7.585.271 1.178 1.063 2.09 2.225 2.572.685.28 1.298.28 1.633.28 5.042 0 10.013-.776 14.798-2.306-.036.115-.072.237-.114.367l-.093.301a93.031 93.031 0 0 1-3.002 8.167c-2.454 5.811-5.755 11.285-8.943 16.579-2.075 3.447-4.222 7.01-6.154 10.688-1.484 2.823-1.198 5.545.727 6.931 1.662 1.2 3.787 1.494 5.805 1.494 1.098 0 2.168-.086 3.11-.165.427-.036.834-.072 1.204-.086 4.037-.23 8.009-.984 11.853-1.717 4.935-.941 11.845-2.636 18.042-4.432 1.327-.38 2.09-1.774 1.712-3.11a2.499 2.499 0 0 0-2.397-1.817 2.33 2.33 0 0 0-.691.1c-6.055 1.753-12.794 3.412-17.586 4.325-3.68.704-7.488 1.429-11.204 1.637-.406.022-.855.058-1.326.101-.806.065-1.797.151-2.746.151-.948 0-1.761-.072-2.381-.302.057-.201.15-.453.3-.733 1.868-3.548 3.971-7.046 6.01-10.436 3.281-5.445 6.676-11.077 9.272-17.218a96.483 96.483 0 0 0 3.166-8.62l.085-.258c.6-1.846 1.598-4.928-.27-6.738-.414-.402-1.177-.926-2.354-.926-.492 0-1.055.093-1.697.33a43.686 43.686 0 0 1-13.336 2.658c.35-.51.856-1.17 1.598-2.011A101.157 101.157 0 0 0 21.07 63.342l1.12-1.882c2.538-4.252 5.162-8.64 7.116-13.26.528-1.25 1.52-3.584.892-6.04-.193-.776-.585-1.386-1.163-1.81a2.906 2.906 0 0 0-1.74-.553c-.2 0-.406.014-.613.05l-1.697.287c-3.252.553-6.604 1.12-9.841 1.221 1.084-3.763 5.854-12.95 7.559-16.233.856-1.645 1.526-2.945 1.861-3.663.15-.317.357-.805.62-1.415 4.807-11.148 7.09-12.951 7.802-13.224.5.244 1.077.79 1.64 1.329.792.747 2.739 2.27 6.397 5.121 5.178 4.03 18.092 14.086 21.451 18.065-2.995 1.207-6.275 2.047-9.456 2.859l-1.661.424c-.892.23-1.548.704-1.954 1.415-.357.625-.471 1.343-.343 2.133.414 2.507 2.247 4.238 3.238 5.165 3.63 3.426 7.787 6.378 11.802 9.237l1.797 1.278a99.369 99.369 0 0 0 16.346 9.475c1.026.474 1.76.876 2.289 1.2a43.611 43.611 0 0 1-13.265 2.98c-2.303.151-3.159 1.437-3.465 2.191-.985 2.42 1.169 4.834 2.445 6.278l.179.208a97.092 97.092 0 0 0 6.347 6.601c4.828 4.569 10.19 8.347 15.368 11.996 3.223 2.27 6.553 4.618 9.677 7.111.25.201.435.395.571.553-.97.948-3.131 1.702-4.622 2.22-.449.158-.877.301-1.255.452-3.48 1.315-7.26 2.198-10.91 3.046-7.082 1.652-19.612 3.706-27.5 4.137-1.375.072-2.43 1.257-2.36 2.643a2.498 2.498 0 0 0 2.49 2.378h.142c8.158-.446 21.073-2.557 28.361-4.26 3.808-.89 7.745-1.81 11.532-3.239.349-.129.734-.266 1.14-.41 2.539-.883 6.019-2.097 7.624-4.834 1.205-2.054.378-4.654-2.111-6.637-3.237-2.578-6.632-4.97-9.912-7.283-5.035-3.549-10.248-7.226-14.82-11.543a92.04 92.04 0 0 1-6.018-6.256l-.207-.238c-.086-.1-.171-.194-.25-.287a48.813 48.813 0 0 0 14.463-3.893c.306-.136.877-.388 1.383-.92.87-.912 1.234-2.068 1.006-3.253-.378-1.997-2.297-3.7-6.233-5.51a95.185 95.185 0 0 1-15.553-9.014c-.6-.431-1.199-.855-1.805-1.286-3.88-2.758-7.894-5.61-11.267-8.799a15.765 15.765 0 0 1-.778-.769c3.36-.862 6.81-1.774 10.091-3.175.578-.244 2.111-.905 2.839-2.535.97-2.177-.022-4.367-8.458-11.579-4.807-4.109-10.89-8.85-15.333-12.304-2.888-2.249-5.384-4.188-6.026-4.798-.898-.848-2.004-1.897-3.473-2.45a4.659 4.659 0 0 0-1.611-.302m0-1.436c.706 0 1.412.13 2.11.388 1.74.653 3.024 1.86 3.951 2.744.592.56 3.167 2.564 5.89 4.683l-.82 1.178.87-1.135c4.45 3.462 10.54 8.203 15.362 12.326 8.372 7.168 10.276 10.02 8.835 13.26-.955 2.147-2.93 2.995-3.58 3.268-2.517 1.077-5.127 1.875-7.794 2.593 3.066 2.722 6.59 5.222 10.005 7.657.613.43 1.212.862 1.812 1.293a93.431 93.431 0 0 0 15.318 8.878c4.4 2.026 6.575 4.044 7.046 6.544.306 1.637-.2 3.282-1.384 4.518-.706.732-1.47 1.07-1.833 1.235a50.196 50.196 0 0 1-12.18 3.642 91.334 91.334 0 0 0 4.593 4.676c4.492 4.252 9.662 7.894 14.654 11.414 3.295 2.32 6.704 4.726 9.977 7.333 3.081 2.457 4.044 5.79 2.453 8.498-1.875 3.182-5.641 4.496-8.386 5.459l-.064.021c-.371.13-.72.252-1.042.374-3.872 1.458-7.851 2.392-11.702 3.29-7.352 1.716-20.381 3.843-28.618 4.295h-.221c-2.083 0-3.794-1.645-3.908-3.735-.114-2.177 1.547-4.044 3.708-4.159 7.816-.424 20.232-2.457 27.256-4.101 3.609-.841 7.331-1.71 10.733-2.996.392-.151.827-.301 1.29-.459.75-.259 1.805-.633 2.69-1.035-2.818-2.191-5.784-4.28-8.658-6.306-5.22-3.685-10.619-7.492-15.532-12.125a98.29 98.29 0 0 1-6.44-6.702l-.178-.201c-1.405-1.58-4.022-4.532-2.703-7.78.35-.854 1.505-2.872 4.692-3.08a42.552 42.552 0 0 0 9.728-1.79 101.212 101.212 0 0 1-15.832-9.265l-1.79-1.279c-4.058-2.887-8.258-5.868-11.96-9.359-1.033-.97-3.173-2.995-3.665-5.983-.185-1.128-.014-2.17.514-3.09.599-1.04 1.583-1.759 2.838-2.082l1.669-.424c2.431-.618 4.927-1.257 7.28-2.061-4.649-4.547-15.431-12.937-19.796-16.334-3.8-2.96-5.662-4.418-6.504-5.208-.2-.187-.428-.41-.649-.603-.87.926-2.938 3.735-6.51 12.024-.271.625-.486 1.128-.635 1.45-.35.755-1.034 2.07-1.89 3.722-1.348 2.593-5.042 9.704-6.753 14 2.488-.224 5.049-.655 7.537-1.078l1.705-.288a5.01 5.01 0 0 1 .848-.071c.956 0 1.826.28 2.582.833.841.617 1.426 1.523 1.704 2.622.742 2.93-.413 5.652-.962 6.96-1.997 4.705-4.643 9.144-7.21 13.432l-1.12 1.882a102.053 102.053 0 0 1-10.782 14.897 42.414 42.414 0 0 0 9.62-2.306c.749-.273 1.49-.416 2.19-.416 1.268 0 2.46.474 3.337 1.329 2.51 2.442 1.29 6.198.634 8.217l-.085.258a100.06 100.06 0 0 1-3.21 8.742c-2.63 6.235-6.054 11.909-9.363 17.397-1.818 3.024-3.701 6.142-5.398 9.288h.25c.89 0 1.854-.079 2.63-.144.486-.043.942-.079 1.363-.1 3.623-.209 7.38-.92 11.018-1.617 4.75-.905 11.439-2.55 17.457-4.295.357-.101.72-.158 1.091-.158a3.938 3.938 0 0 1 3.766 2.859 3.933 3.933 0 0 1-.335 3.002 3.868 3.868 0 0 1-2.347 1.882c-6.232 1.81-13.193 3.52-18.17 4.468-3.887.74-7.902 1.508-12.03 1.738-.357.022-.75.05-1.17.086-.97.079-2.069.173-3.23.173-2.818 0-4.986-.575-6.633-1.76-2.539-1.832-2.995-5.272-1.155-8.77 1.954-3.707 4.107-7.291 6.19-10.753 3.166-5.258 6.44-10.688 8.857-16.406a90.594 90.594 0 0 0 2.332-6.142 49.94 49.94 0 0 1-12.601 1.61c-.4 0-1.234 0-2.168-.388-1.583-.647-2.703-1.954-3.081-3.578-.57-2.478.613-5.214 3.844-8.87a94.706 94.706 0 0 0 10.454-14.323l1.134-1.896c2.161-3.614 4.386-7.341 6.105-11.084-2.732.424-5.434.755-8.166.79h-.25c-1.76 0-3.216-.517-4.342-1.544-3.31-3.017-1.49-7.865 6.981-24.163.785-1.516 1.462-2.816 1.733-3.405.129-.28.314-.704.542-1.235C23.052 8.752 27.196.276 32.986.276l-.028.029Z" fill="#25C6F9"/></svg>