<svg xmlns="http://www.w3.org/2000/svg" width="336" height="348" fill="none"><g clip-path="url(#a)"><path fill="#12071D" d="M50.731 159.049a116.628 116.628 0 0 0-11.998 20.619c17.706 27.588 43.335 50.614 72.641 65.337 12.968-1.049 27.284-5.041 38.118-12.249-14.624-15.122-28.163-30.073-44.363-43.508-16.2-13.435-34.705-22.741-54.387-30.211l-.01.012Z"/><path fill="#CE9CFF" d="M277.226 289.232c3.653 9.192 9.978 17.324 17.969 23.163a49.632 49.632 0 0 0 4.03 2.691c.16.092.297.171.468.251.491.251.993.411 1.53.536 3.288.707 7.249-.798 10.275-2.383 4.372-2.281 7.066-5.657 8.345-10.276 3.893-14.096 9.955-27.417 15.149-41.113.708-1.894 1.256-3.753.868-5.475-.183-.878-.605-1.722-1.37-2.52a27.063 27.063 0 0 0-2.683-2.406c-1.553-1.232-3.242-2.327-4.909-3.296-3.847-2.236-8.619-2.658-13.06-2.623-6.268 1.927-11.793 5.006-16.873 8.735-3.916 2.874-7.558 6.136-11.108 9.546-.023-.011-.034-.034-.069-.057-3.676-2.931-7.215-6.147-10.617-9.397a48.492 48.492 0 0 0-1.507 7.743c-1.038 9.044.252 18.624 3.551 26.915l.011-.034Z"/><path fill="url(#b)" d="M287.136 278.42c3.265-3.341 6.393-6.409 10.218-9.089-1.633-4.756-1.759-10.002-.389-14.849-3.915 2.874-7.557 6.136-11.108 9.546-.022-.012-.034-.034-.068-.057-1.164 4.87-.537 9.739 1.347 14.449Z"/><path fill="#800BF5" d="M295.207 312.395a49.458 49.458 0 0 0 4.03 2.691c.16.091.297.171.468.251 3.528 1.722 8.277-.011 11.804-1.847 4.373-2.281 7.067-5.657 8.345-10.276 3.893-14.096 9.955-27.417 15.15-41.114.707-1.893 1.255-3.752.867-5.474-.182-.878-.605-1.722-1.37-2.52a26.948 26.948 0 0 0-2.682-2.407c-3.551-.182-7.786 1.494-10.469 3.045-3.893 2.259-7.067 5.555-9.761 9.158-9.783 13.081-13.22 29.709-16.028 45.79-.16.901-.32 1.813-.354 2.737v-.034Z"/><path fill="#F2C6D5" d="M300.378 315.611c.183.069.365.114.56.16a10.692 10.692 0 0 1-.56-.16Zm.857.24c-.046 0-.08-.023-.126-.035.046 0 .091.012.137.023l-.011.012Z" style="mix-blend-mode:multiply"/><path fill="#800BF5" d="M273.677 262.317c4.806 1.665 8.151 6.307 13.014 7.847 2.226.707 4.612.707 6.918 1.094 2.614.457 5.115 1.403 7.466 2.601 2.181 1.117 4.224 2.452 6.222 3.843 1.028.707 2.398 1.346 3.105 2.349-2.146 4.425-4.144 8.919-5.936 13.481-2.751 6.979-5.092 14.335-4.772 21.782-.171-.079-.308-.159-.468-.25a47.876 47.876 0 0 1-4.03-2.692c-7.991-5.839-14.316-13.971-17.969-23.163-3.299-8.279-4.589-17.871-3.55-26.915v.023Z" opacity=".2" style="mix-blend-mode:multiply"/><path fill="#800BF5" d="M299.693 315.326c3.528 1.722 8.277-.012 11.805-1.848 4.372-2.281 7.066-5.656 8.345-10.275 3.893-14.096 9.955-27.417 15.149-41.114.708-1.893 1.256-3.752.868-5.474-1.644-1.015-4.19-.855-6.005-.376-3.368.878-6.313 3.022-8.654 5.588-2.329 2.577-4.132 5.588-5.833 8.622a191.98 191.98 0 0 0-10.914 23.094c-2.752 6.98-5.092 14.336-4.772 21.783h.011Z" style="mix-blend-mode:multiply"/><path fill="#CE9CFF" d="M129.959 128.176c-.068 1.745.571 3.456 1.507 4.95 3.607 5.736 10.195 11.04 16.713 12.944 6.211 1.802 12.843-.08 19.008-2.03 6.633-2.098 13.254-4.299 19.716-6.911.513-.205 1.039-.411 1.552-.639 5.811-2.429 12.341-4.413 16.999-8.838 2.603-2.475 5.114-5.155 7.546-7.926 2.98-3.376 5.822-6.9 8.539-10.344 2.626-3.319 5.069-6.82 7.067-10.561 1.758-3.262 3.185-6.706 4.11-10.321.376-1.472-.103-3.068-.959-4.323-.868-1.254-2.089-2.224-3.322-3.136a54.01 54.01 0 0 0-19.762-9.044 75.306 75.306 0 0 0-5.639 4.254 76.196 76.196 0 0 0-17.433 20.62c-1.518-.593-2.523-.456-4.121-.114-.81 1.414-1.621 2.577-1.655 4.003-.023.798-6.256 1.266-7.272 1.528a92.028 92.028 0 0 0-7.398 2.201 99.43 99.43 0 0 0-13.802 5.908 107.096 107.096 0 0 0-13.152 8.108c-1.883 1.346-4.178 2.749-5.867 4.539-1.336 1.414-2.295 3.068-2.375 5.144v-.012Z"/><path fill="url(#c)" d="M185.784 129.978c.251 2.407.696 4.779 1.119 7.151.513-.205 1.039-.411 1.552-.639 5.811-2.429 12.341-4.413 16.999-8.838 2.603-2.475 5.114-5.155 7.546-7.926-2.055-.879-4.11-1.78-6.165-2.669-6.61 5.143-13.288 9.785-21.04 12.921h-.011Z"/><path fill="#800BF5" d="M135.471 126.796c-.034.993.605 1.859 1.233 2.623a112.57 112.57 0 0 0 5.526 6.387c2.306 2.486 4.817 4.95 8.014 6.101 3.733 1.358 7.866.765 11.736-.102 23.779-5.303 45.504-20.266 58.416-40.897a36.533 36.533 0 0 0 8.22-2.087c1.758-3.262 3.185-6.706 4.11-10.321.376-1.472-.103-3.068-.959-4.323-.868-1.254-2.09-2.224-3.323-3.136a53.997 53.997 0 0 0-19.761-9.044 75.101 75.101 0 0 0-5.639 4.254c0 .057.011.103.022.16.583 2.897 1.85 5.69 1.907 8.644a132.337 132.337 0 0 0-22.718 20.05 31.581 31.581 0 0 0 3.71 9.967c-2.797-2.566-5.594-5.143-8.402-7.698a24 24 0 0 0-.685 8.554c-1.439-2.429-3.254-4.437-3.779-7.219-12.592 2.703-24.67 7.857-35.322 15.111-1.073.741-2.26 1.688-2.294 2.976h-.012Z" opacity=".2" style="mix-blend-mode:multiply"/><path fill="#CE9CFF" d="M-.003 136.65c1.405 8.291 5.183 16.628 10.286 23.311 20.173 7.595 41.099 15.715 60.757 24.577a158.967 158.967 0 0 0 21.942 21.338c4.11 3.284 8.368 6.386 12.786 9.238 3.14 2.03 6.039 3.706 8.836 6.284 3.14 2.862 7.375 5.531 11.736 3.717 2.763-14.153 12.386-25.683 23.928-34.327 11.531-8.645 24.967-14.313 38.256-19.913.102-1.129.194-2.212.228-3.25.091-2.897-.205-5.588-1.279-8.519-7.283-3.182-14.384-6.969-21.976-9.295-11.256-8.816-21.097-20.3-33.255-28.375a65.685 65.685 0 0 0-5.445-3.284c-15.07-8.155-30.915-14.861-46.373-22.296-10.16-4.893-20.435-8.987-31.6-10.595-19.727 13.355-36.508 31.02-48.838 51.4l.011-.011Z"/><path fill="#14063D" d="M108.28 170.396a60.617 60.617 0 0 1-12.81 1.688c-3.093-5.953-5.342-13.149-8.436-19.103-4.692-2.577-10.297-3.718-14.396-7.162-4.098-3.433-7.58-7.823-9.064-12.955 1.187.444 3.094.308 4.327 0 4.966 7.983 12.649 15.042 21.462 18.327 3.06 5.383 5.183 12.499 7.158 18.361 2.877.206 6.964-1.574 9.544-2.862.822 1.197 1.393 2.497 2.226 3.695l-.011.011Z"/><path fill="#800BF5" d="M-.003 136.65c1.405 8.291 5.183 16.628 10.286 23.311 4.932 1.859 9.932 3.752 14.944 5.679 15.412 5.942 30.972 12.203 45.813 18.886a158.915 158.915 0 0 0 21.942 21.338c4.11 3.285 8.368 6.387 12.786 9.238 3.139 2.03 6.039 3.707 8.836 6.284 3.14 2.863 7.375 5.531 11.736 3.718 2.763-14.153 12.386-25.683 23.928-34.328 11.53-8.645 24.967-14.313 38.256-19.912.102-1.129.194-2.213.228-3.251-3.562.388-7.535 2.703-10.389 3.753a9594.686 9594.686 0 0 0-19.544 7.162 45.359 45.359 0 0 1 10.514-13.081c-16.028 8.656-29.134 21.395-38.758 36.859-3.915 1.654-7.694 3.068-11.93 3.41-12.203-7.755-23.186-15.578-33.346-25.877-1.439-6.797-3.676-13.138-7.49-18.954-.068 1.688-.536 3.364-.593 5.052-9.224-.969-17.946-4.505-25.035-10.504-1.61.171-2.284.764-3.893.924-1.918-2.395-3.277-4.984-4.441-7.823 2.42-1.46 4.897-3.251 6.838-5.304-2.569.137-5.137-.365-7.706-.205-.4-.889-.262-2.144-.011-3.091 3.333-1.368 6.93-3.444 9.726-5.713.742.593 1.69.946 2.41 1.528-.355 1.163-.275 2.327-.617 3.513 1.644-.08 3.299-.137 4.966-.217-.057.924-.103 1.847-.16 2.771 11.416 3.159 23.083 6.341 34.91 5.771 14.967-.73 38.473-9.101 38.05-26.151a65.685 65.685 0 0 0-5.445-3.284c-15.069-8.155-30.915-14.861-46.372-22.296-10.16-4.893-20.435-8.987-31.6-10.595-16.36 11.085-30.687 25.113-42.149 41.205A161.267 161.267 0 0 0-.014 136.65h.011Z" opacity=".2" style="mix-blend-mode:multiply"/><path fill="url(#d)" d="M-.003 136.65c1.404 8.291 5.183 16.628 10.286 23.311 4.932 1.859 9.932 3.752 14.944 5.679-.023-2.36-.206-4.847-.035-7.059-2.591-2.931-5.205-5.588-7.797-8.519 1.461-4.802 1.998-9.603 2.295-14.621a80.58 80.58 0 0 0-12.98-8.998 161.561 161.561 0 0 0-6.702 10.184l-.011.023Z"/><path fill="#CE9CFF" d="M136.341 72.796a55.957 55.957 0 0 1 5.696 15.476c2.181 10.515.971 21.269-5.525 30.051-1.576 2.121-3.356 4.083-5.263 5.896-4.658 4.459-10.138 8.086-15.686 11.347-.947.571-1.906 1.13-2.854 1.677-9.019 5.155-19.898 6.968-30.093 5.007-17.09-3.296-30.264-16.742-35.002-32.994A47.537 47.537 0 0 1 45.8 99.003a37.048 37.048 0 0 1-.08-2.509 44.862 44.862 0 0 1 .594-7.858c.936-5.77 2.957-11.244 5.856-16.228 5.446-9.34 13.962-16.89 24.317-21.19.924-.376 1.826-.741 2.763-1.06 9.966-3.49 22.135-4.608 31.976-.297a.36.36 0 0 0 .114.057c.514.24 1.028.479 1.541.73.274.125.537.25.811.376 9.498 4.79 17.535 12.465 22.661 21.794l-.011-.022Z"/><path fill="#800BF5" d="M114.537 134.301c.342.399.696.821 1.016 1.254-.948.57-1.907 1.129-2.854 1.677-9.019 5.154-19.899 6.968-30.093 5.006-17.09-3.296-30.264-16.742-35.002-32.993-.96-4.186-1.633-8.406-1.895-12.762-.023-.251-.035-.502-.057-.753-.114-2.372-.08-4.892.639-7.105a9.157 9.157 0 0 1 1.347-2.612c3.185-4.196 9.807-4.174 14.35-1.505 4.544 2.646 7.58 7.196 10.743 11.393a118.18 118.18 0 0 0 22.147 22.308c6.736 5.155 14.11 9.682 19.636 16.103l.023-.011Z" opacity=".4" style="mix-blend-mode:multiply"/><path fill="#38217B" d="M136.341 72.796a55.96 55.96 0 0 1 5.696 15.476c2.181 10.515.971 21.269-5.525 30.051-1.576 2.121-3.356 4.083-5.263 5.896-3.516 3.148-7.489 5.782-11.781 7.721-9.921 4.482-21.554 5.178-31.84 1.653-10.297-3.546-19.1-11.359-23.54-21.281 2.557-22.923 16.028-43.588 35.79-55.494 4.303-2.59 8.904-4.767 13.813-5.805 9.498 4.79 17.535 12.465 22.661 21.794l-.011-.011Z"/><path fill="#14063D" d="M67.284 104.66c4.794-25.432 21.131-37.704 28.21-42.585 7.796-5.383 15.445-8.553 23.996-7.664l2.272 1.631 1.027-2.748s-22.261-5.725-45.87 24.132c-5.457 6.877-8.984 17.266-10.651 26.059l1.016 1.175Z"/><path fill="#800BF5" d="M76.919 77.426c23.609-29.869 45.87-24.132 45.87-24.132l-9.555-5.155s-22.273 1.209-37.879 23.607c-9.624 13.823-12.147 29.481-12.147 29.481l3.06 2.27c1.666-8.805 5.194-19.183 10.651-26.06v-.011Z"/><path fill="#14063D" d="M72.982 121.653c9.795 9.009 23.22 12.75 36.383 10.732 13.163-2.019 24.887-10.664 31.52-22.194.537.137 1.028.582 1.564.719-4.84 6.706-10.331 13.902-17.421 18.179-7.717 4.653-17.147 6.033-26.086 4.824-17.512-1.471-26.234-10.892-26.234-10.892l.285-1.345-.011-.023Z"/><path fill="#800BF5" d="M125.027 129.077c-7.718 4.653-17.148 6.033-26.086 4.824-17.513-1.471-26.235-10.891-26.235-10.891l.16-.741-1.278 2.668c8.128 9.934 21.725 14.758 34.476 13.218 12.752-1.551 24.442-9.066 32.057-19.399 1.735-2.361 3.094-5.2 4.338-7.846-4.84 6.706-10.332 13.902-17.421 18.179l-.011-.012Z"/><path fill="#14063D" d="M72.662 114.799c.023.114.057.205.08.308.947 4.048.833 12.898-5.697 12.453a5.05 5.05 0 0 1-.947-.148c-1.736-.388-3.254-1.437-4.567-2.577-3.893-3.422-6.884-8.212-7.854-13.389-.605-3.205-.845-8.417 2.603-10.424.308-.183.65-.342 1.027-.456 7.558-2.498 13.928 8.633 15.355 14.221v.012Z"/><path fill="#800BF5" d="M72.662 114.799c.023.114.057.205.08.308.947 4.048.833 12.898-5.697 12.453a5.05 5.05 0 0 1-.947-.148c2.351-.559 4.167-2.623 4.909-4.927.742-2.315.536-4.835-.092-7.185-1.438-5.428-5.091-10.241-9.955-13.081-1.404-.821-3.105-1.494-4.669-1.186.309-.182.65-.342 1.028-.456 7.557-2.498 13.927 8.633 15.354 14.222h-.011Z"/><path fill="#49CBF4" d="M65.071 115.369c.457 1.38.24 4.163-1.69 4.094-1.929-.057-3.63-2.463-4.475-3.912-.822-1.414-1.21-3.147-1.027-4.778.057-.548.308-1.106.765-1.414 1.313-.901 3.562.923 4.155 2.018-.445-.536-1.039-.946-1.655-1.266-.616-.319-1.438-.342-1.952.126-.628.559-.56 1.551-.365 2.361a11.65 11.65 0 0 0 2.374 4.71c.582.707 1.404 1.391 2.306 1.243.617-.103 1.119-.616 1.336-1.209.217-.593.4-1.369.24-1.973h-.012Z"/><path fill="url(#e)" d="M119.924 56.544c8.402 6.09 19.465 20.859 20.721 36.37-.446 6.774-5.218 12.898-11.417 15.692-6.199 2.794-13.562 2.463-19.829-.148-6.279-2.612-11.52-7.356-15.458-12.888-3.939-5.53-6.667-11.849-8.836-18.292 8.151-11.576 20.8-20.472 34.819-20.734Z" style="mix-blend-mode:screen"/><path fill="url(#f)" d="M125.142 87.564c1.404.776 2.98 1.483 4.555 1.22 1.541-.262 2.797-1.459 3.482-2.862s.856-3 .868-4.562a25.996 25.996 0 0 0-3.402-13.138c-1.815-3.182-4.384-6.01-7.649-7.698-3.265-1.676-7.249-2.098-10.628-.673-15.31 6.455 5.742 23.847 12.774 27.713Z" style="mix-blend-mode:screen"/><path fill="url(#g)" d="M138.898 99.163c-1.667-9.363-12.832-.855-11.416 5.851.707 3.33 3.036 9.1 6.998 5.702 2.945-2.532 5.103-7.721 4.418-11.553Z" style="mix-blend-mode:screen"/><path fill="#527F3D" d="M256.255 36.175c2.317-3.786 2.591-8.61 1.278-12.853-1.244-4.014-4.098-7.766-8.116-9.02-2.386-.753-4.989-.57-7.421.01-2.226.537-4.407 1.438-6.165 2.909-2.739 2.292-4.246 5.919-4.189 9.489.057 3.57 1.598 7.059 4.007 9.682 2.34 2.543 5.354 4.163 8.607 5.223 2.832.924 6.028-.068 8.426-1.699a12.287 12.287 0 0 0 3.573-3.74Z"/><path fill="#fff" d="M252.327 37.213c-3.037 2.794-7.489 2.726-10.983.855-4.121-2.212-6.324-6.705-6.632-11.267-.172-2.543.388-5.178 1.792-7.333 1.313-2.019 3.87-3.102 6.176-3.433 5.286-.764 10.263 1.015 12.524 6.158 2.157 4.904 1.107 11.348-2.877 15.032v-.012Zm-30.641-3.147c-2.055-7.197-4.498-14.256-6.553-21.464-7.238-1.654-14.784-4.368-22.17-5.155-1.085-.114-1.827-1.197-2.021-2.27-.194-1.094.034-2.269.651-3.193.605-.935 1.267-1.722 2.352-1.984 7.888 2.68 15.332 6.204 22.615 10.253 2.135 7.322 4.258 14.643 6.393 21.954-.696.775-.559 1.083-1.256 1.858h-.011Z"/><path fill="#4F009D" d="M203.216 55.894a73.111 73.111 0 0 0 2.535 19.947c.856 3.136.434 6.603.981 9.808.743 4.333 5.754 6.98 10.047 7.914 4.304.936 8.767.422 13.14-.102 5.902-.707 8.813-7.858 10.719-13.48 1.907-5.623 2.261-11.645 2.443-17.586.058-1.825.046-3.798-1.073-5.247-.913-1.186-2.42-1.756-3.881-2.087-6.119-1.368-12.524.628-18.745-.125-2.763-.33-5.446-1.197-8.22-1.391-2.774-.194-6.153.228-7.969 2.337l.023.012Z"/><path fill="#800BF5" d="M213.284 93.004c9.704 1.483 19.795 1.38 30.218 0l3.996-63.785c-13.208-3.057-26.04-3.399-38.221 0l3.995 63.785h.012Z"/><path fill="#49CBF4" d="m244.473 39.813-2.98 51.23h-26.805l-1.77-51.23c12.467-5.953 25.173 4.015 31.543 0h.012Z"/><path fill="#49CBF4" d="M219.769 92.525c2.649.046 5.149-.319 7.786-.273-.08-2.76-.194-5.486.046-8.234 3.858-.605 7.648-.958 11.564-.913a118.217 118.217 0 0 0 1.952-26.39c-.034-.775-.091-1.597-.559-2.201-.537-.696-1.461-.935-2.318-1.13-3.778-.854-7.534-1.687-11.302-2.554V35.07c-3.173.227-6.016.341-9.144.946.091 3.638-.011 7.424.08 11.062-2.329 3.433-4.155 7.117-6.245 10.698a29.79 29.79 0 0 0 6.04 3.284c.833 10.116 2.032 21.315 2.089 31.454l.011.011Z" style="mix-blend-mode:multiply"/><path fill="#4F009D" d="M214.768 41.946a10.75 10.75 0 0 1 3.927 7.208c-2.203 4.276-4.692 8.2-7.728 11.929-.183 1.471.079 3.045-.103 4.505.023-.171-2.786-1.79-3.094-2.019a25.341 25.341 0 0 1-3.082-2.657c-.902-.924-1.61-1.585-1.827-2.828-.251-1.529-.228-3.17-.342-4.722 1.997-2.11 4.395-3.775 6.849-5.326 2.135-1.357 4.156-3.877 5.389-6.078l.011-.012Zm11.839 35.206c1.016.388 1.622.947 2.421 1.654-.354 1.3-.834 2.2-.845 3.535 3.219 2.167 6.907 3.479 10.651 4.494.183.057.377.102.559.16 3.95 1.06 8.037.786 11.999-.217.696-2.68.799-5.429.925-8.2-.297-.468-.902-1.266-1.45-1.426-.092-4.79-.012-9.671.616-14.427.012-.137.023-.285.057-.422.799-.273 1.53-.513 2.329-.775.012-.012.012-.023.023-.034 1.61-2.76 2.477-5.36 2.557-8.554-4.018-1.63-8.95-4.094-13.197-5.075a1.08 1.08 0 0 0-.262.057c-2.649.422-5.526 1.152-8.015 2.076-1.404-.194-3.242-.388-4.623-.582-.799 1.95-1.233 4.197-1.302 6.307 2.763 1.38 5.617 2.406 8.7 2.498.844.878 1.233 1.744 2.077 2.623-3.847.478-7.877 1.38-11.587 2.554-1.313 4.505-1.895 9.101-1.644 13.777l.011-.023Z"/><path fill="url(#h)" d="M242.67 56.18c.457.706 1.267 1.071 2.043 1.402 1.781.741 3.551 1.471 5.332 2.224.879.376 1.781.741 2.66 1.117.342.137.765.388 1.187.57 1.61-2.76 2.477-5.36 2.557-8.553-4.018-1.63-8.95-4.094-13.197-5.075a1.08 1.08 0 0 0-.262.057c-.137.377-.194.787-.252 1.175a76.807 76.807 0 0 0-.456 4.573c-.069.867-.092 1.802.377 2.52l.011-.01Zm-3.859 22.831c3.836.547 7.74-.057 11.337-1.471a31.08 31.08 0 0 1-12.182-.342c.229-1.916.457-4.094.685-6.022 3.448.536 6.713.513 10.172.137-3.173-.4-6.655-.98-9.818-1.38.343-2.783.834-5.645 1.884-8.234a38.18 38.18 0 0 1 10.606 1.026c-.64 4.756-.708 9.637-.617 14.427.548.16 1.153.958 1.45 1.426-.114 2.771-.217 5.52-.925 8.2-3.961 1.015-8.048 1.277-11.998.216-.183-.057-.377-.102-.559-.16-.286-.843-.343-1.801-.274-2.69.137-1.654.468-3.48.251-5.133h-.012Z"/><path fill="url(#i)" d="M211.778 44.113c-.537-4.117-1.119-8.633-1.644-12.75a79.172 79.172 0 0 1 36.007-.251 192.485 192.485 0 0 1-1.142 16.206c-2.021-.548-3.722-.696-5.799-.924-.72-5.223-1.679-9.854-2.398-15.077-7.306-1.118-14.761-.844-21.85 1.277.125 3.045.342 6.273.274 9.318-1.267.832-2.158 1.38-3.425 2.212l-.023-.011Z" style="mix-blend-mode:screen"/><path fill="#14063D" d="M193.888 6.284c-.126.182-.263.353-.457.456-.605.33-1.142-.353-1.37-.832a3.81 3.81 0 0 1-.171-2.749c.342-1.038 1.13-1.904 2.146-2.292.16-.057.354-.114.514-.046.696.297.491 1.825.445 2.395a6.486 6.486 0 0 1-1.107 3.057v.01Z"/><path fill="#A0DD83" d="M254.268 28.9c1.838 2.155-.628 8.484-3.859 6.842-.753-.388-1.153-1.232-1.427-2.03a16.764 16.764 0 0 1-.845-3.832c-.034-.388-.045-.832.229-1.129.171-.183.433-.262.673-.342.891-.262 1.793-.536 2.729-.536.924 0 1.906.308 2.511 1.015l-.011.011Zm-.045-4.768c.366-2.338-2.1-4.938-4.007-5.93-.399-.206-.822-.377-1.267-.365-2.283.08-3.39 3.672-3.368 5.451.023 2.076 1.53 4.186 3.791 4.06 1.872-.114 4.509-1.095 4.851-3.216Zm-10.183-1.3c-.32 1.391-1.279 2.737-2.66 3.08-1.359.341-2.74-.331-3.985-.97-.582-.297-1.187-.627-1.495-1.209-.434-.821-.08-1.836.377-2.657.765-1.369 1.86-2.623 3.287-3.285 1.119-.524 3.437-.912 4.259.354.708 1.083.491 3.547.228 4.687h-.011Z"/><path fill="#CE9CFF" d="M124.593 225.594c2.535 1.323 5.572 2.076 7.763 3.901.217.182.423.365.651.536 20.115 16.651 40.425 29.857 61.762 41.284 12.843 6.866 26.063 13.082 39.853 18.989.057.57.092 1.141.137 1.722a369.681 369.681 0 0 0 1.781 17.061c4.19 8.337 29.819 34.499 38.929 38.833 4.453.274 8.825-.217 12.935-1.448 5.183-1.528 9.977-4.231 14.099-8.052a49.03 49.03 0 0 0 .251-4.858c.011-6.535-1.416-13.081-5.366-18.316-1.45-1.927-2.991-3.809-4.498-5.714-2.534-3.182-5-6.432-6.872-10.024a33.876 33.876 0 0 1-1.256-2.692c-.879-2.167-1.849-4.391-2.717-6.649-1.222-3.125-2.272-6.306-2.751-9.5a28.436 28.436 0 0 1-.251-2.406c-.857-15.875-.446-36.016-1.325-51.412-.376-6.626-.993-12.374-2.055-16.537-3.219-8.211-9.955-19.821-15.446-22.216-.73-.217-1.438-.422-2.169-.639-16.759-4.858-34.602-7.983-51.943-9.329-2.089-2.372-4.955-4.447-7.398-6.443-1.61.285-3.539.342-5.137.616-.08-.034-.16-.092-.229-.126-1.381-.752-3.162-1.46-4.497-2.212-13.745 5.656-27.65 11.416-39.603 20.266-4.989 3.706-9.624 7.937-13.54 12.682-5.434 6.614-9.464 14.198-11.108 22.683Z"/><path fill="#800BF5" d="M229.394 253.296c.913 10.515 2.271 21.11 4.657 31.397.423-11.279-.525-22.604-2.466-33.723-.822 1.151-1.37 1.174-2.203 2.338l.012-.012Z" opacity=".2" style="mix-blend-mode:multiply"/><path fill="#800BF5" d="M211.469 223.348c-3.471-2.589-7.113-5.053-10.583-7.653 8.562 3.581 16.165 7.721 24.065 12.579-4.738-1.322-9.544-1.995-13.482-4.938v.012Z" opacity=".2"/><path fill="url(#j)" d="M232.453 256.923a170.13 170.13 0 0 0-29.556-13.663c1.929-7.173 4.486-13.902 8.014-20.437 4.703 1.46 9.658 3.216 14.042 5.452 3.847 8.587 6.404 19.296 7.5 28.648Z"/><path fill="url(#k)" d="M227.851 207.381c8.128 7.539 14.305 17.586 17.273 28.249 11.484 1.175 23.414-1.824 32.593-8.781-.377-6.626-.993-12.374-2.055-16.537-3.219-8.211-9.955-19.821-15.446-22.216-.731-.217-1.439-.422-2.169-.639-12.41 1.449-24.008 9.033-30.196 19.913v.011Z"/><path fill="#800BF5" d="M235.787 302.769c.228 2.076.479 4.174.753 6.318 4.19 8.337 29.819 34.499 38.929 38.833 10.069.605 19.648-2.657 27.034-9.5a49.03 49.03 0 0 0 .251-4.858c-7.249 5.269-15.926 8.53-24.853 9.317-16.474-10.902-30.047-24.862-42.103-40.121l-.011.011Z"/><path fill="#800BF5" d="M135.7 202.922c2.032 1.346 3.801 3.57 5.913 5.269 8.129 6.489 17.581 12.066 26.862 16.776 3.482-2.429 7.82-3.695 11.919-4.813-2.238 2.612-4.452 5.589-6.051 8.645 7.227 5.839 14.887 10.652 22.958 14.655 7.957 3.957 16.325 7.151 25.116 9.762 1.267-7.059.399-14.164-1.895-20.95a316.317 316.317 0 0 0-23.712-15.738c-.57-.354-1.153-.696-1.724-1.038.548.217 1.085.422 1.644.661-.696-3.854-.068-7.892 1.233-11.621 1.359-3.935 3.437-7.584 5.503-11.211-.365 2.498.388 4.927.023 7.436.959-1.916 3.059-3.159 4.018-5.064 12.158 4.095 24.522 9.706 35.345 16.583 4.612 29.583 7.009 60.17 5.434 90.062 7.854 14.45 16.576 29.401 30.755 37.761 2.671 1.573 5.537 2.896 7.888 4.915.514.445 1.028.935 1.462 1.46-4.11 1.231-8.471 1.722-12.935 1.448-9.11-4.334-34.739-30.496-38.929-38.833-.274-2.144-.514-4.242-.753-6.318-.4-3.695-.742-7.264-1.028-10.743-.057-.581-.091-1.152-.137-1.722-1.724-.741-3.436-1.494-5.149-2.235a471.538 471.538 0 0 1-10.537-4.756c-1.312-.593-2.602-1.209-3.893-1.813-1.461-.696-2.933-1.403-4.383-2.099-1.028-.49-2.044-.992-3.06-1.505a478.094 478.094 0 0 1-8.025-4.06c-1.564-.799-3.14-1.62-4.692-2.464a.333.333 0 0 1-.126-.068c-21.577-11.553-42.091-24.919-62.412-41.821-2.192-1.824-5.217-2.577-7.763-3.9 1.644-8.485 5.674-16.069 11.108-22.684l.023.023Z" opacity=".2" style="mix-blend-mode:multiply"/><path fill="#800BF5" d="M177.997 216.87c4.498-3.353 9.293-6.033 14.567-7.96a56.148 56.148 0 0 1 6.325-15.454c-8.209 6.911-14.841 14.553-20.892 23.414Z" opacity=".2" style="mix-blend-mode:multiply"/><path fill="#800BF5" d="M124.592 225.594c2.535 1.323 5.571 2.076 7.763 3.901.217.182.423.365.651.536 3.447-11.473 7.729-22.889 16.176-31.215 4.864-4.79 10.834-8.257 16.782-11.598a723.362 723.362 0 0 1 13.414-7.39c4.806-2.601 9.407-4.779 13.974-7.641-1.382-.753-3.163-1.46-4.498-2.213-13.745 5.657-27.65 11.416-39.603 20.266-4.989 3.707-9.624 7.938-13.54 12.682-5.434 6.615-9.464 14.199-11.107 22.684l-.012-.012Z"/><path fill="#800BF5" d="M170.366 199.018c8.333-4.003 16.656-7.995 24.989-11.998-9.521.046-18.996 4.596-24.989 11.998Z" opacity=".2" style="mix-blend-mode:multiply"/><path fill="url(#l)" d="M253.333 290.179c.765 3.934 2.192 8.028 4.087 11.564 9.247-.513 18.403-4.71 24.625-11.564-1.222-3.125-2.272-6.307-2.751-9.5a78.984 78.984 0 0 1-25.961 9.5Z"/><path fill="url(#m)" d="M263.115 313.216c2.124 3.341 4.681 5.383 7.752 7.869 5.16-6.831 13.482-11.176 22.022-11.553-2.535-3.182-5.001-6.432-6.873-10.024-9.201.946-17.467 6.169-22.901 13.697v.011Z"/><path fill="url(#n)" d="M112.584 153.506c-3.585-1.118-8.14-1.266-10.423 1.711-5.07 6.614 4.509 17.734 9.429 21.486 2.66 2.03 5.777 3.626 9.11 3.809 10.846.593 10.709-10.526 5.937-17.13-3.425-4.733-8.46-8.154-14.053-9.888v.012Z"/><path fill="#14063D" d="M123.907 164.842c.206.65.331 1.3.366 1.95.08 1.563-.879 3.296-2.432 3.524-.731.103-1.473-.125-2.169-.388-4.121-1.528-8.379-3.98-11.222-7.39-.948-1.14-1.781-2.543-1.575-4.003.673-4.641 6.655-2.908 9.395-1.79 3.117 1.266 6.53 4.584 7.637 8.108v-.011Z"/></g><defs><linearGradient id="i" x1="227.92" x2="228.912" y1="22.444" y2="64.425" gradientUnits="userSpaceOnUse"><stop stop-color="#AED4D4"/><stop offset=".4" stop-color="#637878"/><stop offset=".81" stop-color="#1C2222"/><stop offset="1"/></linearGradient><linearGradient id="b" x1="294.113" x2="285.526" y1="266.451" y2="266.451" gradientUnits="userSpaceOnUse"><stop stop-color="#800BF5"/><stop offset="1" stop-color="#25C6F9"/></linearGradient><linearGradient id="d" x1="18.499" x2=".67" y1="146.042" y2="146.042" gradientUnits="userSpaceOnUse"><stop stop-color="#800BF5"/><stop offset="1" stop-color="#25C6F9"/></linearGradient><linearGradient id="e" x1="106.288" x2="118.036" y1="35.033" y2="124.225" gradientUnits="userSpaceOnUse"><stop stop-color="#3D4A4A"/><stop offset=".51" stop-color="#1C2222"/><stop offset="1"/></linearGradient><linearGradient id="f" x1="112.332" x2="157.628" y1="61.647" y2="114.564" gradientUnits="userSpaceOnUse"><stop stop-color="#3D4A4A"/><stop offset=".51" stop-color="#1C2222"/><stop offset="1"/></linearGradient><linearGradient id="g" x1="104.069" x2="149.365" y1="68.719" y2="121.635" gradientUnits="userSpaceOnUse"><stop stop-color="#3D4A4A"/><stop offset=".51" stop-color="#1C2222"/><stop offset="1"/></linearGradient><linearGradient id="h" x1="251.52" x2="238.459" y1="67.77" y2="67.77" gradientUnits="userSpaceOnUse"><stop stop-color="#800BF5"/><stop offset="1" stop-color="#25C6F9"/></linearGradient><linearGradient id="c" x1="205.742" x2="186.51" y1="127.093" y2="127.093" gradientUnits="userSpaceOnUse"><stop stop-color="#800BF5"/><stop offset="1" stop-color="#25C6F9"/></linearGradient><linearGradient id="j" x1="224.571" x2="203.685" y1="239.873" y2="239.873" gradientUnits="userSpaceOnUse"><stop stop-color="#800BF5"/><stop offset="1" stop-color="#25C6F9"/></linearGradient><linearGradient id="k" x1="264.419" x2="229.181" y1="211.668" y2="211.668" gradientUnits="userSpaceOnUse"><stop stop-color="#800BF5"/><stop offset="1" stop-color="#25C6F9"/></linearGradient><linearGradient id="l" x1="274.388" x2="254.099" y1="291.211" y2="291.211" gradientUnits="userSpaceOnUse"><stop stop-color="#800BF5"/><stop offset="1" stop-color="#25C6F9"/></linearGradient><linearGradient id="m" x1="284.949" x2="263.909" y1="310.296" y2="310.296" gradientUnits="userSpaceOnUse"><stop stop-color="#800BF5"/><stop offset="1" stop-color="#25C6F9"/></linearGradient><linearGradient id="n" x1="121.996" x2="101.496" y1="166.651" y2="166.651" gradientUnits="userSpaceOnUse"><stop stop-color="#800BF5"/><stop offset="1" stop-color="#25C6F9"/></linearGradient><clipPath id="a"><path fill="#fff" d="M336 0H0v348h336z"/></clipPath></defs></svg>