<svg xmlns="http://www.w3.org/2000/svg" width="291" height="330" fill="none">
  <g clip-path="url(#a)">
    <path fill="#12071D" d="M200.353 230.401c8.195 1.062 20.634 5.357 28.701 3.541 14.093-26.005 20.817-61.177 21.963-90.729-7.747-3.26-19.429-4.959-27.809-5.695-5.348 31.037-12.712 63.066-22.855 92.883Z"/>
    <path fill="#CE9CFF" d="M37.565 314.822c5.772 3.504 12.357 5.273 19.107 6.02 3.527.397 7.103.502 10.65.43 10.286-.197 19.563-1.758 29.855-1.692.364-2.092.727-4.194 1.094-6.276 2.91-16.483 6.03-33.104 9.739-49.371 1.353-.034 2.217-.023 3.569-.057.225-1.439-.252-2.897-.039-4.344a456.995 456.995 0 0 0 40.947-2.332c-8.546-11.843-20.809-22.904-33.121-31.177-.908-.612-1.822-1.202-2.725-1.785-6.507-.748-13.665-1.038-20.668-.909-4.833.074-9.6.35-14.002.806-5.718 5.401-11.507 13.817-11.999 18.143.366 5.463.696 10.892 1.014 16.314.57 9.474 1.091 18.906 1.72 28.431-.485.298-.974.637-1.445 1.014-2.02 1.499-3.899 3.45-5.364 5.451-.176.213-.34.435-.486.643-1.223.488-2.47.949-3.723 1.381-2.443.813-4.96 1.496-7.503 1.971-3.293.647-6.63.988-9.96.961-3.032 2.204-5.236 5.662-6.237 9.397-.632 2.302-.8 4.704-.411 6.989l-.012-.008Z"/>
    <path fill="url(#b)" d="M70.968 258.605c3.841-.469 7.523-.981 11.483-1.41 1.299-5.105 3.155-10.328 5.064-15.247 3.595-2.17 6.731-4.645 10.328-6.806.028.046.066.09.096.146a28.389 28.389 0 0 0-1.997-11.964c-4.833.075-9.6.351-14.002.806-5.718 5.402-11.507 13.818-11.999 18.143.366 5.464.695 10.893 1.013 16.314l.014.018Z"/>
    <path fill="url(#c)" d="M65.877 293.492c2.72 3.733 5.887 6.485 10.175 8.454 1.944-2.338 3.365-4.706 5.309-7.044a94.24 94.24 0 0 1-10.12-6.862c-2.02 1.499-3.899 3.451-5.364 5.452Z"/>
    <path fill="url(#d)" d="M54.165 297.487c1.284 3.751 2.496 7.556 3.35 11.402 2.703-.199 5.348-.722 7.99-1.275a30.101 30.101 0 0 0-3.827-12.1c-2.443.813-4.96 1.496-7.503 1.971l-.01.002Z"/>
    <path fill="#800BF5" d="M37.567 314.822c5.772 3.504 12.356 5.273 19.107 6.02 3.526.397 7.103.502 10.649.43 10.286-.197 19.564-1.758 29.855-1.692.365-2.092.728-4.194 1.094-6.276-6.599-1.737-13.054-1.835-19.845-1.246a157.921 157.921 0 0 0-17.5 2.482c-.558.118-1.053.245-1.531.349-.948.206-1.815.348-2.941.17-6.584-1.009-12.945-3.477-18.465-7.218-.632 2.302-.8 4.704-.412 6.989l-.011-.008Z"/>
    <path fill="#800BF5" d="M56.663 320.844c3.526.397 7.103.502 10.649.43 10.286-.197 19.564-1.758 29.855-1.692.365-2.092.728-4.194 1.094-6.276 2.911-16.483 6.031-33.104 9.74-49.372 1.352-.033 2.216-.022 3.569-.056.225-1.439-.253-2.897-.039-4.344a456.603 456.603 0 0 0 40.946-2.333c-8.546-11.842-20.808-22.903-33.121-31.176a93.83 93.83 0 0 0-23.019 5.02c-6.734 19.555-11.06 40.119-12.98 60.708-.254 2.732-1.873 5.074-4.123 6.644-2.238 1.578-4.795 2.614-7.198 3.947-5.248 2.926-9.65 7.326-12.663 12.539a32.467 32.467 0 0 0-2.7 5.959l-.01.002Z" opacity=".2" style="mix-blend-mode:multiply"/>
    <path fill="#CE9CFF" d="M79.295 167.29c5.86 7.088 12.311 13.608 19.346 19.345a118.8 118.8 0 0 0 14.486 10.215c.792.471 4.525-1.146 5.432-1.406 4.579-1.298 9.099-2.818 13.588-4.455 1.609-.596 3.207-1.2 4.801-1.824 5.562-2.169 11.478-4.116 16.176-8.041 4.626-3.872 8.1-9.754 7.874-16.043-.147-3.859-1.963-7.699-4.786-10.167-1.255-1.089-2.33-1.672-3.364-1.907-1.925-.454-3.725.266-6.249 1.083a92.655 92.655 0 0 0-13.123 5.317c-1.258.636-11.378 7.416-11.85 7.093-10.241-7.094-20.61-12.826-31.659-18.389-5.136 5.127-9.087 11.883-10.678 19.2l.006-.021Z"/>
    <path fill="url(#e)" d="M98.64 186.635a118.825 118.825 0 0 0 14.487 10.216c.791.47 4.524-1.147 5.432-1.407 4.578-1.297 9.098-2.818 13.587-4.455a45.112 45.112 0 0 0-5.03-7.092 59.613 59.613 0 0 1-10.759 1.902c-4.668.38-8.863-1.696-12.732-4.346a36.956 36.956 0 0 0-4.995 5.184l.01-.002Z"/>
    <path fill="#800BF5" d="M150.444 162.647a106.6 106.6 0 0 0-27.095 9.545c-.408 2.191-1.593 4.346-3.031 6.038-.937-1.358-1.208-2.791-1.16-4.433-1.139 1.021-2.054 1.82-3.184 2.839-.499-1.931-.538-3.658-.223-5.63-7.378-5.384-14.871-9.57-23.251-13.206-1.445 3.863-3.676 7.864-7.045 10.228 6.788 9.026 15.629 17.216 25.024 23.474 12.96-.735 25.468-4.291 37.117-10.041 2.679-1.32 5.459-2.932 6.719-5.647 1.056-2.254.84-4.944-.044-7.275-.883-2.33-2.296-3.919-3.827-5.892Z" opacity=".2" style="mix-blend-mode:multiply"/>
    <path fill="#CE9CFF" d="M137.244 199.794c.199-.37 8.443 1.444 9.155 1.573 3.718.739 7.45 1.385 11.103 2.389a164.56 164.56 0 0 1 17.799 6.016c8.291 3.357 16.307 7.402 23.894 12.13a145.27 145.27 0 0 1 9.21 6.239c3.084-.864 5.625-3.438 6.466-6.516.612-2.247.583-4.615 1.249-6.841.629-2.088 1.742-4.017 2.641-6.01a130.905 130.905 0 0 0 5.187-13.493 131.129 131.129 0 0 0 3.674-13.97c.499-2.369.925-4.746 1.299-7.134.172-1.105.129-6.168.891-6.799 9.064-7.487 17.483-15.826 25.364-24.628a320.246 320.246 0 0 0 7.991-9.278c.254-7.022-.425-14.165-3.846-19.936a108.63 108.63 0 0 0-10.565-9.704c-16.468-13.257-36.693-21.85-57.668-24.632 1.085 8.948 4.08 20.696 10.528 27.317 3.197 3.275 6.852 6.206 10.668 8.723a56.684 56.684 0 0 0 5.766 3.353c.145.076.392.215.717.392 1.484.836 4.485 2.522 5.103 2.17a158.504 158.504 0 0 0-7.775 4.707c-.046.028-.082.055-.128.083-2.7 1.72-5.349 3.501-7.962 5.378a180.616 180.616 0 0 0-8.92 6.804c-9.401.619-18.907.466-28.192 2.272-.345.061-.676.139-1.04.202-5.838 1.224-12.118 3.174-16.185 7.405a15.195 15.195 0 0 0-3.42 5.497c-1.041 2.92-1.472 6.028-1.993 9.081-2.101 12.355-5.049 26.126-11.021 37.211l.01-.001Z"/>
    <path fill="#800BF5" d="M165.719 151.831c1.906 3.775 8.239 3.986 11.842 3.599 8.999-.945 18.292-5.846 25.601-10.958 2.512-1.757 5.428-3.87 7.855-6.343 3.108-3.16 5.439-6.935 5.244-11.363a4.036 4.036 0 0 0-.158-.906c-.046.028-.082.055-.127.083a172.426 172.426 0 0 0-7.963 5.378 180.737 180.737 0 0 0-8.919 6.804c-9.402.62-18.908.466-28.193 2.273-.344.06-.676.138-1.04.202a31.614 31.614 0 0 0-2.857 3.897c-1.371 2.197-2.452 5.003-1.285 7.334Z" opacity=".3" style="mix-blend-mode:multiply"/>
    <path fill="#800BF5" d="M199.197 221.911a146.288 146.288 0 0 1 9.21 6.24c3.083-.864 5.625-3.438 6.466-6.516.611-2.247.583-4.616 1.249-6.842.629-2.087 1.742-4.016 2.641-6.009a130.828 130.828 0 0 0 5.186-13.494 130.815 130.815 0 0 0 3.675-13.969c.498-2.369.925-4.746 1.299-7.134.172-1.105.129-6.169.891-6.799 9.064-7.487 17.482-15.826 25.364-24.628a320.246 320.246 0 0 0 7.991-9.278c.254-7.022-.426-14.165-3.846-19.936a108.64 108.64 0 0 0-10.566-9.704c-16.469-13.267-36.694-21.86-57.669-24.642 1.085 8.948 4.08 20.696 10.528 27.317 3.197 3.275 6.852 6.206 10.668 8.723a56.684 56.684 0 0 0 5.766 3.353c.145.076.392.215.717.392 6.307-2.026 13.408-1.422 19.278 1.659-2.488.263-4.735 1.507-6.952 2.686 2.139 1.797 4.396 4.972 5.626 7.485-.928-.091-1.642.237-2.56.144-5.706 7.499-11.778 14.706-18.147 21.662-1.305-.918-1.896-1.687-3.202-2.604.081 3.363-.008 6.979.563 10.307.639 3.661 1.928 7.036 1.999 10.807.116 6.359-2.204 12.809-4.271 18.739-2.059 5.918-5.123 11.535-6.236 17.703-.573 3.163-.644 6.472-1.958 9.399-.854 1.904-2.186 3.507-3.708 4.949l-.002-.01Z" opacity=".2" style="mix-blend-mode:multiply"/>
    <path fill="#CE9CFF" d="M127.772 126.682a49.065 49.065 0 0 0 6.667 12.81c5.527 7.614 13.198 13.169 22.715 14.142 2.302.236 4.624.236 6.918.078 5.63-.386 11.203-1.797 16.579-3.467.925-.274 1.847-.567 2.76-.858 8.645-2.8 16.23-8.772 20.959-16.526 7.939-13.001 6.982-29.456-.753-42.11a41.801 41.801 0 0 0-5.569-7.22 39.354 39.354 0 0 0-1.575-1.53 38.997 38.997 0 0 0-5.437-4.253 41.5 41.5 0 0 0-13.954-5.775c-9.248-1.983-19.16-.919-28.044 3.241-.787.371-1.553.748-2.311 1.165-8.125 4.392-16.02 11.605-19.026 20.518a.416.416 0 0 1-.032.107c-.15.472-.299.955-.43 1.424a8.898 8.898 0 0 0-.224.75c-2.489 8.974-2.26 18.701.761 27.524l-.004-.02Z"/>
    <path fill="#800BF5" d="M180.444 148.831c.059.456.122.932.214 1.402.926-.273 1.848-.566 2.76-.858 8.646-2.8 16.23-8.771 20.959-16.525 7.939-13.001 6.982-29.457-.752-42.11-2.141-3.085-4.487-6.011-7.145-8.751-.151-.166-.298-.313-.458-.478-1.465-1.478-3.118-2.933-4.978-3.774a8.065 8.065 0 0 0-2.49-.67c-4.594-.414-8.486 3.887-9.431 8.403-.958 4.499.199 9.154 1.049 13.671a103.234 103.234 0 0 1 1.402 27.483c-.623 7.402-2.041 14.84-1.13 22.207Z" opacity=".2" style="mix-blend-mode:multiply"/>
    <path fill="#38217B" d="M127.772 126.682a49.065 49.065 0 0 0 6.667 12.81c5.527 7.614 13.198 13.169 22.715 14.142 2.302.236 4.624.236 6.918.078 4.105-.414 8.155-1.426 11.934-3.071 8.748-3.781 16.053-10.89 19.818-19.632 3.774-8.753 3.891-19.058.086-27.784-16.354-11.856-37.653-15.333-57.014-9.564-4.211 1.254-8.334 2.959-11.893 5.508-2.488 8.975-2.26 18.702.761 27.525l.008-.012Z"/>
    <path fill="#14063D" d="M189.076 100.779c-19.293-11.9-36.856-8.555-44.193-6.856-8.077 1.879-14.637 4.953-19.093 11.016l-.285 2.433-2.388-.961s9.394-17.79 42.64-15.45c7.665.527 16.466 4.363 23.146 8.479l.164 1.35.009-.011Z"/>
    <path fill="#800BF5" d="M165.766 90.95c-33.244-2.33-42.64 15.449-42.64 15.449l2.283-9.223s13.9-13.698 37.588-10.59c14.619 1.917 26.247 9.519 26.247 9.519l-.334 3.313c-6.68-4.115-15.48-7.952-23.145-8.478l.001.01Z"/>
    <path fill="#14063D" d="M196.72 114.483c.058 11.653-5.42 22.55-14.472 29.874-9.062 7.325-21.563 9.815-32.94 7.312-.229.425-.23 1.004-.46 1.429 7.19.822 15.086 1.51 22.025-.555 7.555-2.254 14.002-7.54 18.483-14.044 9.357-12.194 8.393-23.405 8.393-23.405l-1.039-.609.01-.002Z"/>
    <path fill="#800BF5" d="M170.884 152.541c7.554-2.254 14.002-7.54 18.483-14.044 9.357-12.194 8.393-23.405 8.393-23.405l-.566-.337 2.482.742c1.648 11.122-3.233 22.767-11.745 30.107-8.512 7.341-20.263 10.471-31.435 9.311-2.55-.264-5.195-1.069-7.637-1.819 7.19.822 15.086 1.51 22.025-.555Z"/>
    <path fill="#14063D" d="M192.471 110.236c.055.082.098.155.153.237 2.066 3.006 7.859 8.139 11.415 3.653.174-.223.336-.454.466-.7.767-1.351.985-2.951 1.022-4.479.08-4.538-1.267-9.292-4.04-12.975-1.717-2.286-4.947-5.515-8.28-4.455a4.452 4.452 0 0 0-.905.391c-6.072 3.425-2.606 14.107.169 18.328Z"/>
    <path fill="#800BF5" d="M192.471 110.236c.054.082.098.155.152.237 2.066 3.006 7.859 8.139 11.415 3.653.174-.223.336-.454.466-.7-1.748 1.198-4.158 1.153-6.076.271-1.939-.888-3.449-2.51-4.593-4.298-2.667-4.128-3.627-9.335-2.604-14.16.304-1.392.864-2.889 1.985-3.724-.298.093-.6.217-.904.391-6.073 3.426-2.606 14.107.168 18.328l-.009.002Z"/>
    <path fill="url(#f)" d="M197.319 105.656c.631 1.117 2.554 2.606 3.657 1.318 1.093-1.287.544-3.797.094-5.209-.431-1.365-1.322-2.64-2.493-3.48-.395-.285-.9-.45-1.367-.338-1.363.32-1.5 2.848-1.147 3.882-.085-.604-.001-1.227.16-1.813.161-.586.623-1.133 1.23-1.199.727-.076 1.333.548 1.743 1.156a10.4 10.4 0 0 1 1.656 4.315c.108.792.079 1.73-.556 2.217-.437.34-1.061.368-1.565.152-.512-.205-1.119-.545-1.413-1.011l.001.01Z"/>
    <path fill="url(#g)" d="M126.92 106.476c-1.008 9.03 2.046 24.896 11.357 34.85 4.653 3.71 11.424 4.229 16.882 1.865 5.457-2.364 9.579-7.324 11.581-12.928 2.002-5.603 2.016-11.793.758-17.607-1.259-5.815-3.748-11.302-6.642-16.496-12.295-1.552-25.507 1.398-33.937 10.306l.001.01Z" style="mix-blend-mode:screen"/>
    <path fill="url(#h)" d="M143.934 128.146c-.329 1.366-.788 2.805-1.894 3.668-1.081.838-2.592.95-3.907.561-1.305-.39-2.442-1.216-3.462-2.122a22.69 22.69 0 0 1-6.502-9.949c-.99-3.052-1.308-6.384-.48-9.48.828-3.096 2.908-5.934 5.826-7.276 13.199-6.102 12.057 17.78 10.421 24.608l-.002-.01Z" style="mix-blend-mode:screen"/>
    <path fill="url(#i)" d="M143.346 143.878c-5.087-6.606 7.008-8.812 10.505-3.937 1.742 2.424 4.1 7.336-.426 7.894-3.374.418-8.005-1.257-10.077-3.947l-.002-.01Z" style="mix-blend-mode:screen"/>
    <path fill="url(#j)" d="M246.202 134.674c2.116 3.413 5.336 6.176 8.953 8.079a320.206 320.206 0 0 0 7.991-9.277c.254-7.023-.425-14.166-3.846-19.937a108.883 108.883 0 0 0-10.565-9.704 16.216 16.216 0 0 0-6.627 6.118c-.47.793 2.73 5.588 3.302 6.31 1.368 1.738 2.295 2.986 2.843 5.253 1.048 4.431.345 9.291-2.05 13.168l-.001-.01Z"/>
    <path fill="url(#k)" d="M182.266 165.419c2.89-4.583 10.602-7.564 12.547-.602.439 1.586.693 3.388.751 5.285l6.547-2.393c.342-.131.712-.276.847-.604.115-.274.03-.584-.051-.874-1.424-5.197-2.613-10.091-4.056-15.275 3.285-6.325 5.581-13.44 9.152-19.643a172.53 172.53 0 0 1 7.962-5.378 125.965 125.965 0 0 0-13.717 24.853c.925 5.762 2.45 11.763 4.204 17.339-3.567 1.982-7.066 3.832-10.968 5.001-.322 4.488-1.645 9.162-3.985 12.654a14.318 14.318 0 0 1-2.754 3.098c-3.235 2.666-6.798 1.422-8.544-2.075-3.349-6.697-1.93-15.059 2.065-21.386Z"/>
    <path fill="#14063D" d="M186.14 178.322c-.048.069-.109.13-.157.2-.293.355-.714.672-1.195.705-.461.03-.888-.209-1.188-.532-2.734-3.001-1.895-8.533.459-11.541.978-1.246 2.836-2.393 4.018-.794 1.007 1.355.881 3.771.708 5.333-.253 2.326-1.144 4.713-2.653 6.64l.008-.011Z"/>
    <path fill="#CE9CFF" d="M62.298 231.825c2.84 2.272 5.867 4.339 9.11 6.013a88.15 88.15 0 0 1 2.006-2.967c2.635-3.778 5.338-7.11 8.528-10.731 2.724-.365 5.425-.634 8.12-.812 8.066-.548 16.058-.302 24.206.555 6.665 9.544 14.436 17.759 22.423 26.17 8.151 8.595 16.699 12.262 28.504 12.805 10.999.52 22.773-2.076 30.129-10.867 4.69-5.598 8.441-11.984 11.094-18.797a66.105 66.105 0 0 0 1.91-5.719c.357-1.209.683-2.422.956-3.646-16.096-11.009-34.126-18.353-53.299-21.552a107.051 107.051 0 0 0-3.146-.485c-3.579-3.37-7.238-6.269-11.466-8.765-3.366-1.978-6.665-2.405-10.521-3.008a81.903 81.903 0 0 0-9.904 2.736c-9.871 3.389-19.309 8.498-28.353 13.781-.182.002-.368-.016-.55-.015-2.811-.076-5.326-.428-8.113-.539-.286-.011-.57-.012-.866-.021a83.227 83.227 0 0 0-3.769-2.657 79.906 79.906 0 0 0-6.262-3.875 80.275 80.275 0 0 0-9.356-4.52c-2.871-1.171-6.784-.122-9.42 1.323-3.375 1.868-4.623 5.058-5.04 8.529-.14 1.17-.194 2.376-.208 3.575-.048 9.999 5.767 17.522 13.275 23.481l.012.008Z"/>
    <path fill="#800BF5" d="M90.073 223.327c8.065-.549 16.056-.303 24.205.554 6.664 9.544 14.435 17.76 22.423 26.17 8.151 8.595 16.699 12.263 28.503 12.805 11 .521 22.773-2.076 30.129-10.867 4.69-5.597 8.441-11.984 11.094-18.796a66.133 66.133 0 0 0 1.911-5.72c-3.404-2.133-7.282-3.676-10.151-6.46-2.13 2.897-5.76 4.404-9.338 4.756-3.578.352-7.851-.199-11.383-.859-5.446-7.851-12.825-14.228-21.07-19.064-4.53 3.672-9.445 6.875-14.476 9.823-17.247-5.412-36.9-2.482-51.86 7.64l.013.018Z" opacity=".2" style="mix-blend-mode:multiply"/>
    <path fill="#800BF5" d="M152.85 201.8c2.629 3.212 3.236 3.552 5.758 6.965 9.914 1.329 19.329 5.312 27.934 10.41 6.989 4.143 13.497 9.019 19.887 14.027a67.722 67.722 0 0 0 2.866-9.365c-16.972-11.616-36.099-19.144-56.445-22.037Z"/>
    <path fill="url(#l)" d="M74.903 219.884c2.07 1.291 4.303 1.651 6.721 1.279 1.78-5.251 5.14-10.159 10.442-14.636-2.811-.076-5.326-.427-8.113-.538-5.525 3.43-8.401 8.497-9.05 13.895Z"/>
    <path fill="url(#m)" d="M60.502 213.234c2.07 1.991 4.237 3.194 6.937 4.142 3.296-5.222 6.753-10.623 11.86-14.062a79.908 79.908 0 0 0-6.263-3.875c-5.059 3.481-9.677 8.447-12.543 13.806l.008-.011Z"/>
    <path fill="#800BF5" d="M62.298 231.825c2.84 2.272 5.867 4.339 9.11 6.013a88 88 0 0 1 2.006-2.967 43.509 43.509 0 0 1-5.978-3.468 45.302 45.302 0 0 1-10.424-9.993c-3.7-4.931-6.35-10.644-7.773-16.653-.14 1.171-.194 2.377-.207 3.576-.05 9.998 5.766 17.521 13.274 23.48l-.008.012Z"/>
    <path fill="url(#n)" d="M114.955 201.166c1.303-3.22 3.458-6.031 6.014-8.405a82.13 82.13 0 0 1 9.904-2.736c3.857.603 7.145 1.032 10.521 3.008 4.228 2.496 7.887 5.396 11.466 8.766 1.676 2.05 2.529 2.925 3.589 4.18-2.709 7.187-7.748 14.266-14.812 17.418-4.617-3.453-10.317-6.482-15.728-8.498-3.502-1.304-6.953-.69-10.664-1.096-2.204-3.976-1.981-8.447-.292-12.647l.002.01Z"/>
    <path fill="#800BF5" d="M64.792 158.426c2.629 5.595 14.33 11.643 19.626 6.497 2.115-2.053 3.051-4.996 3.92-7.805 1.093-3.548 2.193-7.179 2.152-10.894-.1-7.771-5.449-14.716-5.81-22.473.64-1.156.924-2.433 1.577-3.572-.556-.511-1.475-1.131-2.024-1.664a35.514 35.514 0 0 1 .496-7.491c-.152-.115-.305-.24-.456-.346-1.32-.945-2.937-1.494-4.453-.945-1.832 2.744-2.87 5.745-3.829 8.905-.773 2.539.989 5.659 1.426 8.28-.382.077-.74.17-1.11.265-4.297.995-8.18 2.211-12.29 3.985-2.905 1.248-1.734 5.749-1.52 8.896.282 4.049.61 8.079.968 12.103.201 2.136.412 4.33 1.327 6.259Z"/>
    <path fill="#14063D" d="M53.43 144.865c.314 1.801 1.254 3.412 2.527 4.72.684.084 1.373.197 2.056.28 1.109 2.575 2.093 5.425 2.848 8.123-.217.382-.235 1.035-.45 1.427.236 1.176.407 2.16.651 3.325.826.433 1.732.802 2.647 1.048 1.168.303 2.382.405 3.553.2 2.479-.433 4.245-2.162 6.36-3.343 2.392-1.342 4.799-2.655 7.194-3.976.255-1.729-.06-3.185-.766-4.735 1.003-.409 1.837-1.264 2.339-2.224a31.745 31.745 0 0 0-1.075-5.746c-.123-.414-.24-.85-.549-1.171-.592-.607-1.476-.503-2.228-.513-.103-.875.139-1.698.117-2.577-.049-1.269-.462-2.647-.73-3.888-.08-.402-.191-.808-.49-1.071-.263-.227-.638-.284-.991-.333-1.351-.19-2.653-.5-3.961-.738.762-1.147 1.158-2.484 1.048-3.865-.175-2.281-.822-3.608-3.262-3.821-1.101-.091-2.291-.116-3.128-.842-1.149-1.006-2.032-1.653-3.455-2.195-.198.085-.388.159-.584.254-5.968 2.575-10.125 7.856-11.321 14.302-.274 1.509.882 2.848 1.805 4.127.053.072.106.144.161.225.268.025.865.194 1.135.228.086.147.136.372.142.584.023.249-.016.489-.105.677-.343.648-.947 1.018-1.467 1.524l-.021-.006Z"/>
    <path fill="url(#o)" fill-rule="evenodd" d="M53.676 141.627c-.03.005-.112 0-.112 0l.002.009a53.607 53.607 0 0 0-.28-.379c-.856-1.15-1.77-2.379-1.524-3.737 1.185-6.455 5.342-11.736 11.32-14.313.149.218.285.478.398.773v.002c-.048.251-.095.502-.144.743a30.718 30.718 0 0 0-.648 5.691c-4.954 4.203-7.664 8.714-9.012 11.211Zm1.336 1.034c.013.252-.024.502-.105.678-.242.457-.614.776-.995 1.102-.159.136-.32.273-.472.422.314 1.801 1.264 3.41 2.527 4.721.229.031.458.064.686.097.458.067.916.133 1.37.182 1.119 2.573 2.103 5.423 2.848 8.123-.102.188-.16.443-.22.701-.06.263-.121.528-.23.726.099.494.187.954.274 1.411.118.622.236 1.236.377 1.914.826.433 1.722.804 2.647 1.048 3.481-.558 6.643-2.368 9.383-4.612-.523-1.491-1.089-3.218-1.048-4.787-2.24 1.112-4.588 2.466-6.453 4.151 1.47-2.782 3.68-5.4 6.374-7.038-.236-2.575-.98-5.204-2.012-7.579-2.268 1.337-4.731 2.418-7.163 3.485-.585.257-1.168.512-1.746.771a48.134 48.134 0 0 1 8.179-6.055 17.459 17.459 0 0 0-5.02-7.672 326.406 326.406 0 0 0-4.862 4.333c-1.458 1.316-2.922 2.638-4.339 3.878Z" clip-rule="evenodd"/>
    <path fill="url(#p)" d="M76 118.636c-.773 2.539.998 5.657 1.426 8.28l-.01.002c-.38.087-.741.17-1.11.265.55.999 1.093 2.02 1.617 3.044 1.223-.133 2.578-.329 3.367-1.269.389-.443.595-1.006.751-1.561.611-2.074.769-4.252.85-6.396.066-1.888.07-3.785.27-5.656.156-1.66.674-3.11 1.121-4.669-1.32-.945-2.937-1.494-4.453-.945-1.833 2.744-2.862 5.734-3.829 8.905Z"/>
  </g>
  <g clip-path="url(#q)">
    <path fill="#49CBF4" fill-rule="evenodd" d="M186.456 43.687s-31.88-37.723-34.337-37.45c-2.456.28-12.195 50.548-12.195 50.548l46.532-13.098Z" clip-rule="evenodd"/>
    <path fill="url(#r)" fill-rule="evenodd" d="M185.957 43.147c-3.872-3.283-38.855 5.934-45.487 12.805-7.103 7.355 53.922-5.65 45.487-12.805Z" clip-rule="evenodd"/>
    <path fill="#14063D" fill-rule="evenodd" d="M183.359 44.03c-3.4-2.803-34.359 5.372-40.266 11.335-6.322 6.383 47.665-5.23 40.266-11.335Z" clip-rule="evenodd"/>
    <path fill="#49CBF4" fill-rule="evenodd" d="M183.763 44.444c1.138.301-3.322 5.174-11.245 7.437-7.924 2.263-19.167-.063-20.406-.52-1.243-.456 21.375-9.65 31.654-6.918l-.003.001Z" clip-rule="evenodd" opacity=".2"/>
    <path fill="#800BF5" fill-rule="evenodd" d="M180.926 37.203s-15.435-12.824-35.717-6.087l-.939 4.36s13.732-9.042 39.748 5.345l-3.092-3.618ZM166.819 45.065s-12.976-4.539-24.185-1.78l-.932 4.558s7.481-3.517 16.961-.531l8.156-2.247ZM170.453 25.14s-11.146-7.309-22.718-5.144l1.21-4.003s6.16-2.703 16.492 3.5l5.016 5.646Z" clip-rule="evenodd"/>
    <path fill="#fff" fill-rule="evenodd" d="M181.662 39.831c.588 1.021-19.642 6.814-25.26 4.816-5.619-1.999-4.658-34.953-4.398-36.953.256-1.999 23.939 22.18 29.658 32.137Z" clip-rule="evenodd" opacity=".5" style="mix-blend-mode:soft-light"/>
    <path fill="#B57CBA" fill-rule="evenodd" d="M150.51 9.62c.274-.834 3.082 21.59 1.67 28.596-1.408 7.004-9.158 11.576-9.158 11.576s2.65-25.468 7.488-40.172Z" clip-rule="evenodd" opacity=".4" style="mix-blend-mode:multiply"/>
    <path fill="#fff" fill-rule="evenodd" d="M168.336 29.344c1.467.847-.889-2.598-2.411-3.47-1.523-.873-1.754 1.07 2.411 3.47ZM178.213 42.59s-3.02-3.189-4.259-3.458c-1.239-.268-.078 4.355-.078 4.355l4.333-.896.004-.001Z" clip-rule="evenodd"/>
  </g>
  <defs>
    <linearGradient id="b" x1="90.855" x2="69.072" y1="239.148" y2="242.952" gradientUnits="userSpaceOnUse">
      <stop stop-color="#800BF5"/>
      <stop offset="1" stop-color="#25C6F9"/>
    </linearGradient>
    <linearGradient id="c" x1="77.205" x2="66.755" y1="294.371" y2="296.195" gradientUnits="userSpaceOnUse">
      <stop stop-color="#800BF5"/>
      <stop offset="1" stop-color="#25C6F9"/>
    </linearGradient>
    <linearGradient id="d" x1="62.021" x2="55.392" y1="301.877" y2="303.034" gradientUnits="userSpaceOnUse">
      <stop stop-color="#800BF5"/>
      <stop offset="1" stop-color="#25C6F9"/>
    </linearGradient>
    <linearGradient id="e" x1="122.671" x2="100.209" y1="186.752" y2="190.674" gradientUnits="userSpaceOnUse">
      <stop stop-color="#800BF5"/>
      <stop offset="1" stop-color="#25C6F9"/>
    </linearGradient>
    <linearGradient id="f" x1="199.939" x2="196.393" y1="102.479" y2="103.099" gradientUnits="userSpaceOnUse">
      <stop stop-color="#800BF5"/>
      <stop offset="1" stop-color="#25C6F9"/>
    </linearGradient>
    <linearGradient id="g" x1="121.032" x2="171.87" y1="84.958" y2="145.152" gradientUnits="userSpaceOnUse">
      <stop stop-color="#3D4A4A"/>
      <stop offset=".51" stop-color="#1C2222"/>
      <stop offset="1"/>
    </linearGradient>
    <linearGradient id="h" x1="134.694" x2="142.23" y1="104.565" y2="165.101" gradientUnits="userSpaceOnUse">
      <stop stop-color="#3D4A4A"/>
      <stop offset=".51" stop-color="#1C2222"/>
      <stop offset="1"/>
    </linearGradient>
    <linearGradient id="i" x1="144.139" x2="151.684" y1="103.389" y2="163.914" gradientUnits="userSpaceOnUse">
      <stop stop-color="#3D4A4A"/>
      <stop offset=".51" stop-color="#1C2222"/>
      <stop offset="1"/>
    </linearGradient>
    <linearGradient id="j" x1="257.56" x2="244.92" y1="122.312" y2="124.519" gradientUnits="userSpaceOnUse">
      <stop stop-color="#800BF5"/>
      <stop offset="1" stop-color="#25C6F9"/>
    </linearGradient>
    <linearGradient id="k" x1="208.773" x2="176.455" y1="156.723" y2="162.366" gradientUnits="userSpaceOnUse">
      <stop stop-color="#800BF5"/>
      <stop offset="1" stop-color="#25C6F9"/>
    </linearGradient>
    <linearGradient id="l" x1="87.941" x2="74.571" y1="212.675" y2="215.009" gradientUnits="userSpaceOnUse">
      <stop stop-color="#800BF5"/>
      <stop offset="1" stop-color="#25C6F9"/>
    </linearGradient>
    <linearGradient id="m" x1="74.579" x2="60.493" y1="207.648" y2="210.108" gradientUnits="userSpaceOnUse">
      <stop stop-color="#800BF5"/>
      <stop offset="1" stop-color="#25C6F9"/>
    </linearGradient>
    <linearGradient id="n" x1="144.775" x2="115.092" y1="205.221" y2="210.404" gradientUnits="userSpaceOnUse">
      <stop stop-color="#800BF5"/>
      <stop offset="1" stop-color="#25C6F9"/>
    </linearGradient>
    <linearGradient id="o" x1="78.656" x2="53.031" y1="135.528" y2="140.002" gradientUnits="userSpaceOnUse">
      <stop stop-color="#800BF5"/>
      <stop offset="1" stop-color="#25C6F9"/>
    </linearGradient>
    <linearGradient id="p" x1="82.887" x2="75.441" y1="119.27" y2="120.57" gradientUnits="userSpaceOnUse">
      <stop stop-color="#800BF5"/>
      <stop offset="1" stop-color="#25C6F9"/>
    </linearGradient>
    <linearGradient id="r" x1="186.654" x2="139.917" y1="44.035" y2="57.172" gradientUnits="userSpaceOnUse">
      <stop stop-color="#5283FB"/>
      <stop offset="1" stop-color="#0052C2"/>
    </linearGradient>
    <clipPath id="a">
      <path fill="#fff" d="M250.863 55.815 0 99.685l40.137 229.87L291 285.685z"/>
    </clipPath>
    <clipPath id="q">
      <path fill="#fff" d="m174.277 0-46.732 13.155 13.576 48.3L187.853 48.3z"/>
    </clipPath>
  </defs>
</svg>
