<svg width="328" height="48" viewBox="0 0 328 48" fill="none" xmlns="http://www.w3.org/2000/svg">
<path d="M105.801 27.536C105.481 27.7813 105.076 27.952 104.585 28.048C104.095 28.144 103.572 28.192 103.017 28.192C102.345 28.192 101.716 28.08 101.129 27.856C100.543 27.6213 100.031 27.2693 99.5934 26.8C99.1561 26.3307 98.8094 25.7333 98.5534 25.008C98.2974 24.272 98.1694 23.4027 98.1694 22.4C98.1694 21.3547 98.3081 20.4693 98.5854 19.744C98.8734 19.008 99.2468 18.4107 99.7054 17.952C100.175 17.4827 100.697 17.1413 101.273 16.928C101.849 16.7147 102.436 16.608 103.033 16.608C103.673 16.608 104.196 16.6453 104.601 16.72C105.007 16.784 105.353 16.8747 105.641 16.992L105.321 18.16C104.809 17.9147 104.079 17.792 103.129 17.792C102.692 17.792 102.26 17.872 101.833 18.032C101.407 18.192 101.023 18.4533 100.681 18.816C100.351 19.1787 100.084 19.6533 99.8814 20.24C99.6788 20.8267 99.5774 21.5467 99.5774 22.4C99.5774 23.168 99.6734 23.84 99.8654 24.416C100.057 24.992 100.319 25.472 100.649 25.856C100.991 26.24 101.385 26.528 101.833 26.72C102.292 26.912 102.788 27.008 103.321 27.008C103.801 27.008 104.217 26.96 104.569 26.864C104.932 26.768 105.236 26.6453 105.481 26.496L105.801 27.536ZM111.466 21.12H109.146C109.114 21.568 109.082 22.0533 109.05 22.576C109.018 23.088 108.97 23.6053 108.906 24.128C108.842 24.64 108.756 25.136 108.65 25.616C108.543 26.0853 108.404 26.5013 108.234 26.864C108.074 27.2267 107.871 27.52 107.626 27.744C107.391 27.9573 107.108 28.064 106.778 28.064C106.575 28.064 106.399 28.0533 106.25 28.032C106.1 28.0107 105.967 27.9733 105.85 27.92L106.042 26.848C106.17 26.8907 106.308 26.912 106.458 26.912C106.671 26.912 106.863 26.8213 107.034 26.64C107.204 26.4587 107.354 26.1173 107.482 25.616C107.61 25.104 107.716 24.4 107.802 23.504C107.887 22.608 107.946 21.44 107.978 20H112.746V28H111.466V21.12ZM117.561 25.184L118.009 26.72H118.089L118.441 25.168L119.993 20H121.289L118.921 27.184C118.739 27.7067 118.558 28.2133 118.377 28.704C118.206 29.1947 118.014 29.632 117.801 30.016C117.587 30.4 117.347 30.704 117.081 30.928C116.814 31.1627 116.505 31.28 116.153 31.28C115.769 31.28 115.454 31.2267 115.209 31.12L115.433 30.016C115.571 30.0693 115.705 30.096 115.833 30.096C116.131 30.096 116.419 29.936 116.697 29.616C116.974 29.3067 117.203 28.768 117.385 28L114.169 20H115.641L117.561 25.184ZM125.27 24.464L122.918 28H121.446L123.974 24.336L124.518 23.856L123.702 23.248L121.622 20H122.982L125.19 23.456H126.022V20H127.27V23.616L128.022 23.392L130.246 20H131.59L129.414 23.248L128.79 23.76L129.606 24.4L131.974 28H130.454L128.102 24.4H127.27V28H126.022V24.24L125.27 24.464ZM133.945 21.424C134.297 20.912 134.686 20.5547 135.113 20.352C135.539 20.1387 136.073 20.032 136.713 20.032C137.694 20.032 138.446 20.352 138.969 20.992C139.502 21.632 139.769 22.576 139.769 23.824C139.769 25.264 139.459 26.352 138.841 27.088C138.233 27.824 137.379 28.192 136.281 28.192C135.107 28.192 134.227 27.7867 133.641 26.976C133.054 26.1653 132.761 24.8907 132.761 23.152C132.761 22.2347 132.803 21.4507 132.889 20.8C132.985 20.1493 133.118 19.6 133.289 19.152C133.47 18.704 133.683 18.3467 133.929 18.08C134.185 17.8133 134.467 17.6053 134.777 17.456C135.097 17.296 135.443 17.184 135.817 17.12C136.19 17.056 136.59 17.0027 137.017 16.96C137.571 16.9067 138.003 16.848 138.313 16.784C138.633 16.7093 138.889 16.5813 139.081 16.4L139.225 17.552C139.118 17.648 139.001 17.728 138.873 17.792C138.745 17.856 138.59 17.9093 138.409 17.952C138.227 17.9947 138.009 18.032 137.753 18.064C137.507 18.096 137.219 18.1227 136.889 18.144C136.43 18.176 136.025 18.2347 135.673 18.32C135.331 18.3947 135.033 18.5493 134.777 18.784C134.531 19.008 134.334 19.3333 134.185 19.76C134.046 20.176 133.95 20.7307 133.897 21.424H133.945ZM134.089 24.016C134.089 24.4213 134.131 24.8107 134.217 25.184C134.302 25.5573 134.43 25.888 134.601 26.176C134.782 26.4533 135.011 26.672 135.289 26.832C135.566 26.992 135.891 27.072 136.265 27.072C137.001 27.072 137.545 26.8107 137.897 26.288C138.259 25.7547 138.441 24.9707 138.441 23.936C138.441 23.5307 138.403 23.1573 138.329 22.816C138.254 22.4747 138.137 22.1813 137.977 21.936C137.817 21.68 137.614 21.488 137.369 21.36C137.123 21.2213 136.83 21.152 136.489 21.152C135.657 21.1413 135.049 21.3867 134.665 21.888C134.281 22.3787 134.089 23.088 134.089 24.016ZM141.659 20.592C142.064 20.3467 142.533 20.1653 143.067 20.048C143.611 19.9307 144.176 19.872 144.763 19.872C145.317 19.872 145.76 19.9467 146.091 20.096C146.432 20.2453 146.688 20.4427 146.859 20.688C147.04 20.9227 147.157 21.184 147.211 21.472C147.275 21.76 147.307 22.048 147.307 22.336C147.307 22.976 147.291 23.6 147.259 24.208C147.227 24.816 147.211 25.392 147.211 25.936C147.211 26.3307 147.227 26.704 147.259 27.056C147.291 27.408 147.349 27.7333 147.435 28.032H146.491L146.155 26.912H146.075C145.979 27.0613 145.856 27.2107 145.707 27.36C145.568 27.4987 145.397 27.6267 145.195 27.744C144.992 27.8507 144.757 27.9413 144.491 28.016C144.224 28.0907 143.92 28.128 143.579 28.128C143.237 28.128 142.917 28.0747 142.619 27.968C142.331 27.8613 142.08 27.712 141.867 27.52C141.653 27.3173 141.483 27.0773 141.355 26.8C141.237 26.5227 141.179 26.208 141.179 25.856C141.179 25.3867 141.275 24.9973 141.467 24.688C141.659 24.368 141.925 24.1173 142.267 23.936C142.619 23.744 143.035 23.6107 143.515 23.536C144.005 23.4507 144.544 23.408 145.131 23.408C145.28 23.408 145.424 23.408 145.563 23.408C145.712 23.408 145.861 23.4187 146.011 23.44C146.043 23.12 146.059 22.832 146.059 22.576C146.059 21.9893 145.941 21.5787 145.707 21.344C145.472 21.1093 145.045 20.992 144.427 20.992C144.245 20.992 144.048 21.008 143.835 21.04C143.632 21.0613 143.419 21.0987 143.195 21.152C142.981 21.1947 142.773 21.2533 142.571 21.328C142.379 21.392 142.208 21.4667 142.059 21.552L141.659 20.592ZM143.931 27.008C144.229 27.008 144.496 26.9707 144.731 26.896C144.965 26.8107 145.168 26.7093 145.339 26.592C145.509 26.464 145.648 26.3253 145.755 26.176C145.872 26.0267 145.957 25.8827 146.011 25.744V24.416C145.861 24.4053 145.707 24.4 145.547 24.4C145.397 24.3893 145.248 24.384 145.099 24.384C144.768 24.384 144.443 24.4053 144.123 24.448C143.813 24.48 143.536 24.5493 143.291 24.656C143.056 24.752 142.864 24.8907 142.715 25.072C142.576 25.2427 142.507 25.4613 142.507 25.728C142.507 26.1013 142.64 26.4107 142.907 26.656C143.173 26.8907 143.515 27.008 143.931 27.008ZM158.806 21.12H155.27V28H153.99V20H160.086V28H158.806V21.12ZM162.104 24C162.104 22.6453 162.403 21.6107 163 20.896C163.608 20.1707 164.478 19.808 165.608 19.808C166.206 19.808 166.723 19.9093 167.16 20.112C167.608 20.304 167.976 20.5867 168.264 20.96C168.552 21.3227 168.766 21.7653 168.904 22.288C169.043 22.8 169.112 23.3707 169.112 24C169.112 25.3547 168.808 26.3947 168.2 27.12C167.603 27.8347 166.739 28.192 165.608 28.192C165.011 28.192 164.488 28.096 164.04 27.904C163.603 27.7013 163.24 27.4187 162.952 27.056C162.664 26.6827 162.451 26.24 162.312 25.728C162.174 25.2053 162.104 24.6293 162.104 24ZM163.432 24C163.432 24.4053 163.47 24.7947 163.544 25.168C163.63 25.5413 163.758 25.8667 163.928 26.144C164.099 26.4213 164.323 26.6453 164.6 26.816C164.878 26.9867 165.214 27.072 165.608 27.072C167.059 27.0827 167.784 26.0587 167.784 24C167.784 23.584 167.742 23.1893 167.656 22.816C167.582 22.4427 167.459 22.1173 167.288 21.84C167.118 21.5627 166.894 21.344 166.616 21.184C166.339 21.0133 166.003 20.928 165.608 20.928C164.158 20.9173 163.432 21.9413 163.432 24ZM178.109 30.032H177.245L177.005 28H170.989L170.749 30.032H169.885V26.88H170.829C170.914 26.7627 171.026 26.5547 171.165 26.256C171.303 25.9467 171.437 25.52 171.565 24.976C171.703 24.4213 171.821 23.7387 171.917 22.928C172.023 22.1067 172.087 21.1307 172.109 20H176.941V26.88H178.109V30.032ZM175.661 26.88V21.12H173.261C173.239 21.568 173.202 22.0587 173.149 22.592C173.095 23.1147 173.021 23.6427 172.925 24.176C172.839 24.6987 172.727 25.1947 172.589 25.664C172.45 26.1333 172.29 26.5387 172.109 26.88H175.661ZM186.765 30.032H185.901L185.661 28H179.645L179.405 30.032H178.541V26.88H179.485C179.57 26.7627 179.682 26.5547 179.821 26.256C179.96 25.9467 180.093 25.52 180.221 24.976C180.36 24.4213 180.477 23.7387 180.573 22.928C180.68 22.1067 180.744 21.1307 180.765 20H185.597V26.88H186.765V30.032ZM184.317 26.88V21.12H181.917C181.896 21.568 181.858 22.0587 181.805 22.592C181.752 23.1147 181.677 23.6427 181.581 24.176C181.496 24.6987 181.384 25.1947 181.245 25.664C181.106 26.1333 180.946 26.5387 180.765 26.88H184.317ZM194.189 27.36C193.869 27.616 193.464 27.8187 192.973 27.968C192.493 28.1173 191.981 28.192 191.437 28.192C190.829 28.192 190.301 28.096 189.853 27.904C189.405 27.7013 189.037 27.4187 188.749 27.056C188.461 26.6827 188.248 26.24 188.109 25.728C187.971 25.216 187.901 24.64 187.901 24C187.901 22.6347 188.205 21.5947 188.813 20.88C189.421 20.1653 190.291 19.808 191.421 19.808C191.784 19.808 192.147 19.8507 192.509 19.936C192.872 20.0107 193.197 20.16 193.485 20.384C193.773 20.608 194.008 20.928 194.189 21.344C194.371 21.7493 194.461 22.288 194.461 22.96C194.461 23.312 194.429 23.7013 194.365 24.128H189.229C189.229 24.5973 189.277 25.0133 189.373 25.376C189.469 25.7387 189.619 26.048 189.821 26.304C190.024 26.5493 190.285 26.7413 190.605 26.88C190.936 27.008 191.336 27.072 191.805 27.072C192.168 27.072 192.531 27.008 192.893 26.88C193.256 26.752 193.528 26.6027 193.709 26.432L194.189 27.36ZM191.437 20.928C190.808 20.928 190.301 21.0933 189.917 21.424C189.544 21.7547 189.32 22.32 189.245 23.12H193.213C193.213 22.3093 193.059 21.744 192.749 21.424C192.44 21.0933 192.003 20.928 191.437 20.928ZM196.474 20H197.354L197.594 20.96H197.658C197.904 20.5867 198.218 20.304 198.602 20.112C198.997 19.9093 199.445 19.808 199.946 19.808C201.013 19.808 201.808 20.1227 202.33 20.752C202.853 21.3813 203.114 22.4107 203.114 23.84C203.114 24.512 203.024 25.12 202.842 25.664C202.672 26.1973 202.426 26.6507 202.106 27.024C201.786 27.3973 201.397 27.6853 200.938 27.888C200.49 28.0907 199.989 28.192 199.434 28.192C199.04 28.192 198.725 28.1653 198.49 28.112C198.266 28.0693 198.021 27.9893 197.754 27.872V31.2H196.474V20ZM199.706 20.928C199.162 20.928 198.73 21.072 198.41 21.36C198.101 21.6373 197.882 22.064 197.754 22.64V26.608C197.946 26.7573 198.165 26.8747 198.41 26.96C198.656 27.0347 198.981 27.072 199.386 27.072C200.122 27.072 200.704 26.8 201.13 26.256C201.568 25.7013 201.786 24.8907 201.786 23.824C201.786 23.3867 201.749 22.992 201.674 22.64C201.6 22.2773 201.477 21.9733 201.306 21.728C201.146 21.472 200.933 21.2747 200.666 21.136C200.41 20.9973 200.09 20.928 199.706 20.928ZM207.645 24.464L205.293 28H203.821L206.349 24.336L206.893 23.856L206.077 23.248L203.997 20H205.357L207.565 23.456H208.397V20H209.645V23.616L210.397 23.392L212.621 20H213.965L211.789 23.248L211.165 23.76L211.981 24.4L214.349 28H212.829L210.477 24.4H209.645V28H208.397V24.24L207.645 24.464ZM217.6 24.4H216.864V28H215.584V20H216.864V23.616L217.552 23.392L220.112 20H221.504L219.024 23.216L218.352 23.744L219.184 24.384L221.856 28H220.272L217.6 24.4ZM228.216 23.264L228.264 22.272H228.216L227.56 23.296L223.96 28H223.224V20H224.504V24.88L224.456 25.824H224.52L225.144 24.832L228.744 20H229.496V28H228.216V23.264Z" fill="white"/>
<rect x="0.5" y="0.5" width="327" height="47" rx="23.5" stroke="url(#paint0_linear_2057_720)"/>
<defs>
<linearGradient id="paint0_linear_2057_720" x1="87.4667" y1="24" x2="319.253" y2="24" gradientUnits="userSpaceOnUse">
<stop stop-color="#800BF5"/>
<stop offset="1" stop-color="#25C6F9"/>
</linearGradient>
</defs>
</svg>
