<svg xmlns="http://www.w3.org/2000/svg" width="85" height="106" fill="none">
  <g filter="url(#a)">
    <path fill="url(#b)" d="M49.114 79.978c.64.504 1.431.922 2.259 1.067 2.28.4 4.038-2.05 4.707-4.265 4.798-15.915 8.87-43.774-6.963-50.944-17.074-7.732-26.26 21.93-28.72 37.727-.822 4.706-.388 12.652 7.926 6.795.299-.169.965-.906 1.262-.94.13-.016.037.876.032.963-.142 4.178 1.26 10.418 8.004 1.957.21-.238.44-.707.68-.884.096-.07.04.233.061.35l.087.497c.062.36.055.687.085 1.045.067.783.162 1.546.297 2.326.132.761.291 1.484.771 2.103.494.638 1.148.815 1.864 1.097 1.435.564 2.666-.14 3.629-1.138.706-.73 1.368-1.692 1.916-2.564.274-.436.706-.998 1.145-1.292.107-.072.103 1.434.098 1.606-.036 1.222-.217 3.648.86 4.494Z"/>
  </g>
  <circle cx="51.553" cy="46.043" r="1.672" fill="#14063D" transform="rotate(15 51.553 46.043)"/>
  <circle cx="37.823" cy="42.364" r="1.672" fill="#14063D" transform="rotate(15 37.823 42.364)"/>
  <path stroke="#14063D" stroke-linecap="round" stroke-width="2.975" d="M47.04 53.2c-.559 2.082-2.758 3.301-4.914 2.724-2.156-.578-3.451-2.733-2.894-4.815"/>
  <defs>
    <linearGradient id="b" x1="24.393" x2="63.612" y1="65.135" y2="49.11" gradientUnits="userSpaceOnUse">
      <stop stop-color="#EE6300"/>
      <stop offset="1" stop-color="#E9EE00"/>
    </linearGradient>
    <filter id="a" width="88.266" height="104.515" x="-3.893" y=".573" color-interpolation-filters="sRGB" filterUnits="userSpaceOnUse">
      <feFlood flood-opacity="0" result="BackgroundImageFix"/>
      <feColorMatrix in="SourceAlpha" result="hardAlpha" values="0 0 0 0 0 0 0 0 0 0 0 0 0 0 0 0 0 0 127 0"/>
      <feOffset/>
      <feGaussianBlur stdDeviation="12"/>
      <feComposite in2="hardAlpha" operator="out"/>
      <feColorMatrix values="0 0 0 0 0.945223 0 0 0 0 0.452986 0 0 0 0 0.102399 0 0 0 1 0"/>
      <feBlend in2="BackgroundImageFix" result="effect1_dropShadow_74_8057"/>
      <feBlend in="SourceGraphic" in2="effect1_dropShadow_74_8057" result="shape"/>
    </filter>
  </defs>
</svg>
