<svg height="512" style="enable-background:new 0 0 512 512" width="512" xml:space="preserve" xmlns="http://www.w3.org/2000/svg"><path d="M430.472 227.608c17.25 12.85 17.25 41.79 1.08 54.641l-45.509 25.77-67.441-53.09 67.607-52.077 44.263 24.756z" style="fill:#ffc801"/><path d="m386.396 307.769-.01-.01h-.01l-67.835-52.801-.021-.02-.01.01.021.021-.021-.021-.03-.03-.239.181-249.79 190.25v7.95c-.001 10.503 2.457 21.705 10.845 25.595 11.052 5.125 27.177-4.892 27.177-4.892l279.923-166.233z" style="fill:#f93647"/><path style="fill:#00d3ff" d="m318.242 255.099-249.79 190.25V60.588l249.73 194.431z"/><path d="M68.452 56.738v3.85l249.729 194.431.061.08.239-.181.021-.01.1-.08 67.607-51.685S168.776 73.151 105.744 35.661c-2.742-1.631-9.313-5.768-17.192-3.188-9.439 3.092-20.1 14.32-20.1 24.265z" style="fill:#00ef77"/></svg>