<svg width="160" height="88" fill="none" xmlns="http://www.w3.org/2000/svg"><mask id="a" style="mask-type:alpha" maskUnits="userSpaceOnUse" x="71" y="39" width="64" height="13"><path d="M71.28 39.214h63.686v12.733H71.279V39.214Z" fill="#fff"/></mask><g mask="url(#a)"><path fill-rule="evenodd" clip-rule="evenodd" d="M129.377 42.316c0-1.318 1.216-2.093 2.563-2.093a3.625 3.625 0 0 1 2.417.93l.376-.565a4.135 4.135 0 0 0-2.762-1.008c-1.842 0-3.295 1.087-3.295 2.793 0 3.364 5.587 2.606 5.587 5.659 0 1.304-1.045 2.142-2.48 2.142a4.193 4.193 0 0 1-2.873-1.212l-.453.513a4.741 4.741 0 0 0 3.309 1.35c1.994 0 3.201-1.24 3.201-2.87-.003-3.562-5.59-2.772-5.59-5.658v.019Zm-9.559 3.135h4.354v-.639h-4.354v-4.454h5.307v-.62h-5.98v10.858h6.266v-.62h-5.592v-4.525h-.001Zm-9.725-6.225c-3.182-.038-5.793 2.495-5.832 5.658-.001.064 0 .127.001.191a6.126 6.126 0 0 0 1.378 3.933 3.928 3.928 0 0 1-1.549 2.872c2.668.387 4.126-1.007 4.197-1.075a5.901 5.901 0 0 0 1.805.282c3.315 0 5.835-2.637 5.835-6.01.076-3.161-2.442-5.785-5.624-5.86a6.302 6.302 0 0 0-.213-.002l.002.011ZM97.957 45.17H95v-4.81h2.497c.874 0 1.219.078 1.53.217a2.202 2.202 0 0 1 1.281 2.094c-.009 1.474-.914 2.499-2.35 2.499Zm.855.526v-.032c1.281-.282 2.187-1.443 2.187-2.993a2.775 2.775 0 0 0-1.515-2.606c-.439-.217-.95-.326-1.968-.326h-3.197v10.857h.68v-4.81h3.133l2.591 4.81h.797l-2.451-4.528a2.141 2.141 0 0 0-.253-.373h-.004Zm-13.669-.264h4.355v-.62H85.14V40.36h5.302v-.62h-5.98v10.857h6.265v-.62H85.14l.003-4.544Zm-6.264-.588h-6.93V39.75h-.67v10.846h.67v-5.132h6.93v5.132h.672V39.739h-.672v5.104Z" fill="#fff"/></g><mask id="b" style="mask-type:alpha" maskUnits="userSpaceOnUse" x="25" y="39" width="42" height="15"><path d="M25.04 39.529h41.04v14.385H25.04V39.529Z" fill="#fff"/></mask><g mask="url(#b)"><path fill-rule="evenodd" clip-rule="evenodd" d="M38.146 50.728a1.598 1.598 0 0 0-1.597 1.597 1.599 1.599 0 0 0 1.608 1.589 1.598 1.598 0 0 0 1.598-1.597 1.596 1.596 0 0 0-1.6-1.59h-.009Zm23.606-2.383a6.952 6.952 0 0 0-.854.048v-.03c.32-.3.605-.635.854-.994l4.271-6.007v-1.65h-8.328v2.293h4.045c.286.001.571-.014.855-.046v.031c-.32.299-.607.632-.854.994l-4.243 5.972v1.681h8.583v-2.292h-4.329Zm-10.038 2.291h2.691V39.713h-2.69v10.923Zm-5.956-4.018c0 1.146-.752 1.758-1.906 1.758-1.153 0-1.907-.612-1.907-1.758v-6.906h-2.691v6.907c0 2.462 1.814 4.201 4.613 4.201 2.8 0 4.584-1.74 4.584-4.201v-6.907h-2.694v6.907h.001ZM35.45 48.344a5.541 5.541 0 0 0 1.094-3.236c0-3.135-2.355-5.58-5.752-5.58s-5.752 2.445-5.752 5.58c0 2.128 1.028 3.961 2.716 4.93 1.319-1.927.106-.159 1.438-2.132a3.276 3.276 0 0 1-1.369-2.798c0-1.788 1.23-3.135 2.968-3.135 1.691 0 2.967 1.347 2.967 3.135.002.486-.095.968-.285 1.415L32.38 45.47l-1.507 1.698 1.117.965c1.825 1.697.134.119 1.967 1.788l1.14 1.053 1.52-1.698-1.168-.93v-.002Z" fill="#fff"/></g></svg>