<svg xmlns="http://www.w3.org/2000/svg" width="95" height="45" fill="none">
  <path fill="#49CBF4" d="m8.328.118-5.794.947C.852 1.34-.232 2.872.042 4.483l3.62 21.233c.275 1.611 1.808 2.715 3.49 2.44 1.646-.269 2.767-1.807 2.492-3.418L8.389 17.38l2.804-.458c4.748-.777 7.955-5.177 7.162-9.827C17.57 2.483 13.075-.658 8.328.118Zm1.866 10.946-2.803.458-.868-5.088 2.804-.459c1.458-.238 2.81.707 3.047 2.098.25 1.465-.722 2.753-2.18 2.991ZM37.9 24.323 29.76 6.502c-.283-.585-.723-1.047-1.32-1.293a2.917 2.917 0 0 0-2.043 0c-.566.246-1.07.708-1.32 1.293l-8.14 17.82a2.416 2.416 0 0 0 1.256 3.233c1.1.461 2.64.153 3.3-1.262l1.132-2.432h9.618l1.1 2.431c.66 1.447 2.262 1.786 3.3 1.262 1.225-.615 1.822-2 1.257-3.231Zm-13.012-5.356 2.546-5.602 2.546 5.602h-5.092ZM54.993 21.858 51.8 16.56a6.373 6.373 0 0 0 3.453-5.693c0-3.55-2.935-6.453-6.59-6.453h-4.489c-1.237 0-2.273 1.014-2.273 2.254v16.345c0 1.24 1.036 2.254 2.273 2.254 1.296 0 2.331-1.014 2.331-2.254v-5.664h.432l4.086 6.82c.72 1.183 2.13 1.352 3.137.76 1.093-.648 1.468-1.972.834-3.071Zm-4.316-10.99c0 1.126-.892 1.972-2.014 1.972h-2.158V8.923h2.158c1.122 0 2.014.873 2.014 1.944ZM72.431 1.189H60.87c-1.662 0-2.992 1.302-2.992 2.894 0 1.591 1.33 2.894 2.992 2.894h2.844v18.087c0 1.592 1.33 2.894 2.956 2.894 1.588 0 2.918-1.302 2.918-2.894V6.977h2.844c1.662 0 2.992-1.303 2.992-2.894 0-1.592-1.33-2.894-2.992-2.894ZM94.407 9.577c-.952-1.075-2.56-1.233-3.649-.331l-5.26 4.327-2.346-6.323c-.483-1.314-1.956-1.965-3.298-1.492-1.35.503-2.046 1.937-1.532 3.26l3.311 8.952-2.442 8.927c-.362 1.323.435 2.72 1.818 3.083s2.818-.448 3.18-1.772l2.442-8.927 7.439-6.13a2.513 2.513 0 0 0 .337-3.574Z"/>
  <path fill="#fff" d="M22.565 42.178a.892.892 0 0 0-.345-.726 3.394 3.394 0 0 0-.847-.503 18.244 18.244 0 0 0-1.106-.475 6.59 6.59 0 0 1-1.106-.6 3.325 3.325 0 0 1-.847-.894c-.22-.354-.33-.806-.33-1.355 0-.475.081-.885.244-1.23.163-.353.392-.647.69-.88A3.096 3.096 0 0 1 19.993 35a5.256 5.256 0 0 1 1.38-.168c.583 0 1.134.051 1.65.154.518.093.944.233 1.279.419l-.617 1.606c-.211-.13-.527-.247-.949-.349a5.304 5.304 0 0 0-1.364-.168c-.46 0-.814.089-1.063.265a.842.842 0 0 0-.359.713c0 .28.11.512.33.698.23.187.513.359.848.517.345.159.713.322 1.106.49.402.167.77.372 1.106.614.345.233.627.526.847.88.23.344.345.777.345 1.299 0 .521-.091.973-.273 1.355a2.483 2.483 0 0 1-.747.936 3.118 3.118 0 0 1-1.163.558c-.45.122-.948.182-1.494.182-.718 0-1.35-.065-1.896-.196-.546-.13-.948-.26-1.206-.39l.632-1.635a4.298 4.298 0 0 0 .976.363c.211.056.431.103.661.14.24.037.484.056.732.056.585 0 1.03-.093 1.336-.28.316-.195.474-.489.474-.88Zm10.919-5.447h-2.93v8.073h-1.967v-8.073h-2.944v-1.705h7.841v1.705Zm5.36 5.908h-3.087l-.761 2.165h-1.968l3.619-9.847h1.45l3.62 9.847h-2.068l-.805-2.165Zm-2.585-1.536h2.155l-.747-2.18-.302-1.536h-.072l-.301 1.55-.733 2.166Zm12.845-4.372h-2.93v8.073h-1.968v-8.073h-2.944v-1.705h7.842v1.705Zm1.729-1.705H52.8v9.778h-1.967v-9.778Zm4.08 4.89c0-1.63.37-2.883 1.106-3.758.738-.885 1.79-1.327 3.16-1.327.718 0 1.345.121 1.881.363s.982.587 1.336 1.034c.354.447.618.982.79 1.606.172.624.258 1.318.258 2.081 0 1.63-.373 2.887-1.12 3.772C61.587 44.563 60.54 45 59.18 45c-.728 0-1.36-.121-1.896-.363a3.526 3.526 0 0 1-1.336-1.034 4.605 4.605 0 0 1-.775-1.606 7.813 7.813 0 0 1-.258-2.081Zm2.069 0c0 .493.043.95.129 1.368.086.41.215.764.388 1.062.181.298.411.53.689.699.277.167.608.25.991.25.699 0 1.24-.264 1.623-.795s.574-1.392.574-2.584c0-.475-.043-.918-.13-1.327-.076-.41-.2-.769-.372-1.076a1.891 1.891 0 0 0-.675-.712c-.278-.177-.618-.266-1.02-.266-.7 0-1.24.275-1.623.824-.383.54-.575 1.393-.575 2.556Zm10.87-.21-.79-1.537h-.071l.23 1.537v5.098h-1.868v-9.847h1.437l3.806 5.21.76 1.495h.072l-.23-1.495v-5.14h1.868v9.847H71.63l-3.778-5.168Z"/>
</svg>
