<svg width="768" height="438" fill="none" xmlns="http://www.w3.org/2000/svg"><path style="mix-blend-mode:screen" d="M1058 282.355C930.181 114.097 682.315 0 397.468 0 91.045 0-172.584 132.04-290 321.495v115.911h1348V282.355Z" fill="url(#a)"/><path style="mix-blend-mode:screen" d="M970.91 274.138C859.611 127.624 643.765 28.268 395.733 28.268c-266.825 0-496.381 114.977-598.628 279.953v100.931H970.91V274.138Z" fill="url(#b)"/><path style="mix-blend-mode:screen" d="M905.821 276.859C806.868 154.784 614.967 71.996 394.423 71.996c-237.244 0-441.338 95.795-532.245 233.264v84.095H905.821V276.859Z" fill="url(#c)"/><path opacity=".5" d="M629.905 147.754c-1.598 11.232-25.269 16.875-52.88 12.593-27.598-4.282-48.678-16.875-47.08-28.107 1.599-11.233 25.269-16.876 52.88-12.593 27.598 4.282 48.678 16.875 47.08 28.107Zm-509.566-15.181c-26.055 10.419-44.035 27.481-40.136 38.086 3.886 10.605 28.176 10.765 54.23.333 26.055-10.432 44.035-27.48 40.136-38.085-3.886-10.606-28.176-10.766-54.23-.334Zm88.165 18.356c-18.779 7.004-31.868 18.889-29.251 26.533 2.618 7.644 19.951 8.164 38.73 1.148 18.78-7.004 31.869-18.89 29.251-26.534-2.618-7.644-19.95-8.164-38.73-1.147Zm42.175-55.708c-14.192 4.669-24.291 13.127-22.541 18.903 1.736 5.776 14.66 6.683 28.851 2.014 14.191-4.669 24.291-13.126 22.541-18.903-1.736-5.776-14.66-6.683-28.851-2.014Zm455.528 66.1c-13.598-6.297-26.536-6.91-28.878-1.361-2.342 5.536 6.778 15.128 20.377 21.424 13.599 6.297 26.537 6.91 28.879 1.361 2.342-5.549-6.779-15.128-20.378-21.424Zm-64.646 23.785c-16.795-2.028-31.014 1.868-31.772 8.711-.758 6.844 12.249 14.021 29.03 16.048 16.796 2.028 31.014-1.867 31.772-8.711.758-6.83-12.248-14.02-29.03-16.048Z" fill="url(#d)"/><path style="mix-blend-mode:screen" d="M142.439 170.245c-11.932 4.776-23.478 7.324-32.875 7.671 7.633-1.121 16.148-3.415 24.87-6.91 26.054-10.419 44.034-27.481 40.135-38.086-2.108-5.75-10.223-8.431-21.356-8.004 15.156-2.228 26.771.187 29.361 7.243 3.886 10.606-14.081 27.668-40.135 38.086Zm89.488-24.225c8.046-.147 13.875 1.894 15.307 6.069 2.618 7.644-10.485 19.517-29.25 26.534-5.36 2.001-10.596 3.375-15.418 4.148 6.682-.12 14.894-1.734 23.423-4.909 18.779-7.003 31.868-18.889 29.25-26.533-1.873-5.456-11.256-7.257-23.312-5.309Zm350.899-26.374c27.597 4.283 48.677 16.876 47.079 28.108-.937 6.617-9.548 11.299-22.114 13.14 16.81-.814 28.989-5.95 30.119-13.9 1.598-11.233-19.482-23.826-47.079-28.108-11.34-1.761-22.004-1.841-30.767-.56 6.944-.334 14.688.067 22.762 1.32Zm131.387 40.914c-10.375-4.802-20.337-6.283-25.531-4.268 5.043.426 11.202 2.107 17.526 5.029 13.599 6.296 22.733 15.888 20.377 21.424-.564 1.32-1.736 2.281-3.348 2.908 5.801.48 10.1-.694 11.353-3.669 2.343-5.536-6.778-15.127-20.377-21.424Zm-64.647 23.786c-6.778-.814-13.116-.654-18.338.253 3.265-.08 6.737.067 10.333.494 16.796 2.027 29.788 9.204 29.031 16.048-.455 4.082-5.718 7.097-13.434 8.444 11.932-.294 20.846-3.842 21.439-9.205.757-6.83-12.249-14.02-29.031-16.048v.014Zm-382.078-92.1c6.421 0 11.05 1.708 12.042 4.99 1.736 5.775-8.349 14.246-22.541 18.902a62.609 62.609 0 0 1-8.804 2.214c4.85 0 10.706-.973 16.809-2.974 14.192-4.669 24.291-13.127 22.541-18.903-1.364-4.55-9.658-6.056-20.047-4.229Z" fill="url(#e)"/><path opacity=".5" d="M664.6 207.464c-5.194-2.695-12.276-4.816-20.226-5.776-10.471-1.268-19.937-.227-25.765 2.401 5.195 2.695 12.277 4.816 20.226 5.776 10.472 1.268 19.937.227 25.765-2.401Z" fill="url(#f)"/><path opacity=".5" d="M627.274 152.957c-7.839-7.35-23.298-13.874-41.651-16.728-22.94-3.562-43.139-.267-50.248 7.39 7.84 7.35 23.299 13.874 41.651 16.728 22.94 3.562 43.139.267 50.248-7.39Z" fill="url(#g)"/><path opacity=".5" d="M684.633 173.274c3.472 2.908 7.95 5.736 13.075 8.111 9.645 4.468 18.945 6.056 24.373 4.629-3.472-2.909-7.949-5.737-13.075-8.111-9.644-4.469-18.945-6.057-24.373-4.629Z" fill="url(#h)"/><path opacity=".5" d="M85.234 175.981c9.218 4.87 28.645 3.242 49.202-4.989 18.035-7.217 32.185-17.595 37.903-26.827-9.217-4.869-28.644-3.241-49.201 4.99-18.036 7.217-32.186 17.595-37.904 26.826Z" fill="url(#i)"/><path opacity=".5" d="M253.478 111.803c-5.869 1.921-11.008 4.509-14.921 7.27 5.125.254 11.628-.693 18.435-2.935 5.869-1.921 11.008-4.508 14.921-7.27-5.125-.253-11.628.694-18.435 2.935Z" fill="url(#j)"/><path opacity=".5" d="M186.463 182.731c7.316 1.841 19.082.521 31.524-4.122 10.816-4.042 19.716-9.684 24.856-15.221-7.317-1.841-19.083-.52-31.525 4.122-10.815 4.043-19.716 9.685-24.855 15.221Z" fill="url(#k)"/><path opacity=".25" d="M159.234 182.718c1.267 4.229-6.228 10.445-16.74 13.901-10.513 3.455-20.075 2.828-21.343-1.401-1.267-4.229 6.228-10.445 16.741-13.9 10.512-3.456 20.074-2.829 21.342 1.4Z" fill="url(#l)"/><path opacity=".25" d="M552.556 104.439c-.579 4.389-9.907 6.67-20.819 5.096-10.926-1.574-19.303-6.403-18.724-10.792.578-4.389 9.906-6.67 20.818-5.096 10.926 1.574 19.303 6.403 18.725 10.792Z" fill="url(#m)"/><path opacity=".25" d="M781.298 193.47c-2.204 3.775-11.628 1.987-21.039-4.002-9.41-5.99-15.252-13.914-13.048-17.703 2.205-3.775 11.629-1.987 21.039 4.002 9.411 5.99 15.253 13.914 13.048 17.703Z" fill="url(#n)"/><path opacity=".25" d="M578.567 109.055c-.248 1.867-4.202 2.828-8.845 2.161-4.63-.667-8.198-2.721-7.95-4.576.248-1.867 4.202-2.828 8.845-2.161 4.63.667 8.198 2.722 7.95 4.576Z" fill="url(#o)"/><path opacity=".25" d="M623.69 172.339c-.248 1.868-4.202 2.828-8.845 2.161-4.63-.667-8.198-2.721-7.95-4.575.248-1.868 4.202-2.829 8.845-2.162 4.644.667 8.198 2.722 7.95 4.576Z" fill="url(#p)"/><path opacity=".25" d="M667.56 130.359c-.248 1.867-4.203 2.828-8.846 2.161-4.643-.667-8.198-2.722-7.95-4.576.248-1.868 4.202-2.828 8.846-2.161 4.629.667 8.198 2.721 7.95 4.576Z" fill="url(#q)"/><path opacity=".25" d="M704.485 195.818c-.662 1.747-4.726 1.694-9.08-.12-4.354-1.815-7.33-4.696-6.669-6.444.662-1.747 4.726-1.694 9.08.121 4.34 1.814 7.33 4.695 6.669 6.443Z" fill="url(#r)"/><path opacity=".25" d="M694.814 145.593c-.758 2.908-7.247 3.615-14.495 1.56-7.247-2.054-12.51-6.069-11.752-8.977.758-2.908 7.247-3.615 14.494-1.561 7.247 2.054 12.511 6.07 11.753 8.978Z" fill="url(#s)"/><path opacity=".25" d="M559.284 165.298c.546-2.966-5.017-6.408-12.426-7.687s-13.858.089-14.404 3.055c-.546 2.967 5.017 6.408 12.426 7.688 7.409 1.279 13.857-.089 14.404-3.056Z" fill="url(#t)"/><path opacity=".25" d="M260.46 128.238c.648 2.628-4.147 6.189-10.692 7.937-6.558 1.761-12.386 1.04-13.034-1.588-.647-2.628 4.148-6.189 10.692-7.937 6.558-1.761 12.387-1.04 13.034 1.588Z" fill="url(#u)"/><path opacity=".25" d="M253.71 178.223c.648 2.628-4.147 6.19-10.692 7.937-6.558 1.761-12.386 1.041-13.034-1.587-.647-2.628 4.148-6.19 10.692-7.938 6.558-1.76 12.387-1.04 13.034 1.588Z" fill="url(#v)"/><path opacity=".25" d="M267.185 166.017c.4 1.641-2.577 3.855-6.669 4.949-4.078 1.094-7.715.654-8.115-.987-.399-1.641 2.577-3.855 6.669-4.949 4.092-1.094 7.715-.654 8.115.987Z" fill="url(#w)"/><path opacity=".25" d="M226.925 100.13c.4 1.641-2.576 3.855-6.668 4.949-4.079 1.094-7.716.654-8.116-.987-.399-1.641 2.577-3.855 6.669-4.949 4.078-1.094 7.716-.654 8.115.987Z" fill="url(#x)"/><path opacity=".25" d="M175.257 166.017c.4 1.641-2.576 3.855-6.668 4.949-4.092 1.094-7.716.654-8.116-.987-.399-1.641 2.577-3.855 6.669-4.949 4.078-1.094 7.716-.654 8.115.987Z" fill="url(#y)"/><path opacity=".25" d="M317.267 121.354c1.268 4.229-6.227 10.445-16.74 13.9-10.513 3.455-20.075 2.828-21.342-1.4-1.268-4.229 6.227-10.446 16.74-13.901 10.513-3.455 20.075-2.828 21.342 1.401Z" fill="url(#z)"/><path opacity=".25" d="M333.292 104.652c.4 1.641-2.576 3.855-6.668 4.949-4.078 1.094-7.716.654-8.115-.987-.4-1.641 2.576-3.855 6.668-4.949 4.092-1.094 7.716-.654 8.115.987Z" fill="url(#A)"/><path opacity=".25" d="M178.111 112.95c.399 1.641-2.577 3.855-6.669 4.949-4.078 1.094-7.715.654-8.115-.987-.4-1.641 2.576-3.855 6.669-4.949 4.078-1.094 7.715-.654 8.115.987Z" fill="url(#B)"/><defs><radialGradient id="o" cx="0" cy="0" r="1" gradientUnits="userSpaceOnUse" gradientTransform="matrix(32.47663 16.03544 -16.55661 33.53217 592.611 94.754)"><stop stop-color="#4A289C"/><stop offset=".96" stop-color="#00092B"/></radialGradient><radialGradient id="a" cx="0" cy="0" r="1" gradientUnits="userSpaceOnUse" gradientTransform="matrix(693.934 0 0 755.859 372.699 -3.29)"><stop stop-color="#4A289C" stop-opacity="0"/><stop offset=".96" stop-color="#00092B"/></radialGradient><radialGradient id="c" cx="0" cy="0" r="1" gradientUnits="userSpaceOnUse" gradientTransform="matrix(537.244 0 0 548.031 358.394 1.762)"><stop stop-color="#4A289C"/><stop offset=".96" stop-color="#00092B"/></radialGradient><radialGradient id="d" cx="0" cy="0" r="1" gradientUnits="userSpaceOnUse" gradientTransform="matrix(297.33975 46.1637 -47.93582 308.754 407.16 62.477)"><stop stop-color="#4A289C"/><stop offset=".96" stop-color="#00092B"/></radialGradient><radialGradient id="e" cx="0" cy="0" r="1" gradientUnits="userSpaceOnUse" gradientTransform="matrix(223.817 0 0 234.115 419.365 150.025)"><stop stop-color="#4A289C"/><stop offset=".96" stop-color="#00092B"/></radialGradient><radialGradient id="f" cx="0" cy="0" r="1" gradientUnits="userSpaceOnUse" gradientTransform="matrix(276.5 0 0 289.222 495.46 .038)"><stop stop-color="#4A289C"/><stop offset=".96" stop-color="#00092B"/></radialGradient><radialGradient id="g" cx="0" cy="0" r="1" gradientUnits="userSpaceOnUse" gradientTransform="matrix(276.5 0 0 289.222 495.458 .04)"><stop stop-color="#4A289C"/><stop offset=".96" stop-color="#00092B"/></radialGradient><radialGradient id="h" cx="0" cy="0" r="1" gradientUnits="userSpaceOnUse" gradientTransform="matrix(276.499 0 0 289.222 495.459 .039)"><stop stop-color="#4A289C"/><stop offset=".96" stop-color="#00092B"/></radialGradient><radialGradient id="i" cx="0" cy="0" r="1" gradientUnits="userSpaceOnUse" gradientTransform="matrix(276.499 0 0 289.222 495.459 .038)"><stop stop-color="#4A289C"/><stop offset=".96" stop-color="#00092B"/></radialGradient><radialGradient id="j" cx="0" cy="0" r="1" gradientUnits="userSpaceOnUse" gradientTransform="matrix(276.499 0 0 289.222 495.46 .039)"><stop stop-color="#4A289C"/><stop offset=".96" stop-color="#00092B"/></radialGradient><radialGradient id="k" cx="0" cy="0" r="1" gradientUnits="userSpaceOnUse" gradientTransform="matrix(276.5 0 0 289.222 495.461 .038)"><stop stop-color="#4A289C"/><stop offset=".96" stop-color="#00092B"/></radialGradient><radialGradient id="l" cx="0" cy="0" r="1" gradientUnits="userSpaceOnUse" gradientTransform="matrix(84.3633 0 0 88.2452 131.323 139.936)"><stop stop-color="#4A289C"/><stop offset=".96" stop-color="#00092B"/></radialGradient><radialGradient id="m" cx="0" cy="0" r="1" gradientUnits="userSpaceOnUse" gradientTransform="matrix(76.497 37.77063 -38.99831 78.98342 563.919 61.826)"><stop stop-color="#4A289C"/><stop offset=".96" stop-color="#00092B"/></radialGradient><radialGradient id="n" cx="0" cy="0" r="1" gradientUnits="userSpaceOnUse" gradientTransform="matrix(55.98396 66.84125 -66.1151 55.37577 830.871 188.822)"><stop stop-color="#4A289C"/><stop offset=".96" stop-color="#00092B"/></radialGradient><radialGradient id="b" cx="0" cy="0" r="1" gradientUnits="userSpaceOnUse" gradientTransform="matrix(604.262 0 0 658.185 373.811 25.487)"><stop stop-color="#4A289C" stop-opacity="0"/><stop offset=".96" stop-color="#00092B"/></radialGradient><radialGradient id="p" cx="0" cy="0" r="1" gradientUnits="userSpaceOnUse" gradientTransform="matrix(32.47663 16.03544 -16.55661 33.53217 635.633 157.181)"><stop stop-color="#4A289C"/><stop offset=".96" stop-color="#00092B"/></radialGradient><radialGradient id="q" cx="0" cy="0" r="1" gradientUnits="userSpaceOnUse" gradientTransform="matrix(32.47663 16.03544 -16.55661 33.53217 682.646 116.495)"><stop stop-color="#4A289C"/><stop offset=".96" stop-color="#00092B"/></radialGradient><radialGradient id="r" cx="0" cy="0" r="1" gradientUnits="userSpaceOnUse" gradientTransform="rotate(40.414 99.743 1100.647) scale(36.5858 37.0443)"><stop stop-color="#4A289C"/><stop offset=".96" stop-color="#00092B"/></radialGradient><radialGradient id="s" cx="0" cy="0" r="1" gradientUnits="userSpaceOnUse" gradientTransform="matrix(48.56992 32.44088 -33.17131 49.66352 722.361 127.567)"><stop stop-color="#4A289C"/><stop offset=".96" stop-color="#00092B"/></radialGradient><radialGradient id="t" cx="0" cy="0" r="1" gradientUnits="userSpaceOnUse" gradientTransform="rotate(27.583 1.382 1228.224) scale(58.0786 59.5386)"><stop stop-color="#4A289C"/><stop offset=".96" stop-color="#00092B"/></radialGradient><radialGradient id="u" cx="0" cy="0" r="1" gradientUnits="userSpaceOnUse" gradientTransform="rotate(3.205 -1682.965 4383.783) scale(51.7669 54.1602)"><stop stop-color="#4A289C"/><stop offset=".96" stop-color="#00092B"/></radialGradient><radialGradient id="v" cx="0" cy="0" r="1" gradientUnits="userSpaceOnUse" gradientTransform="rotate(3.205 -2577.78 4280.93) scale(51.7669 54.1602)"><stop stop-color="#4A289C"/><stop offset=".96" stop-color="#00092B"/></radialGradient><radialGradient id="w" cx="0" cy="0" r="1" gradientUnits="userSpaceOnUse" gradientTransform="matrix(32.19776 1.80296 -1.88631 33.68633 254.26 148.725)"><stop stop-color="#4A289C"/><stop offset=".96" stop-color="#00092B"/></radialGradient><radialGradient id="x" cx="0" cy="0" r="1" gradientUnits="userSpaceOnUse" gradientTransform="matrix(32.19776 1.80296 -1.88631 33.68633 214.72 83)"><stop stop-color="#4A289C"/><stop offset=".96" stop-color="#00092B"/></radialGradient><radialGradient id="y" cx="0" cy="0" r="1" gradientUnits="userSpaceOnUse" gradientTransform="matrix(32.19776 1.80296 -1.88631 33.68633 162.675 148.738)"><stop stop-color="#4A289C"/><stop offset=".96" stop-color="#00092B"/></radialGradient><radialGradient id="z" cx="0" cy="0" r="1" gradientUnits="userSpaceOnUse" gradientTransform="matrix(84.3634 0 0 88.2452 288.738 78.712)"><stop stop-color="#4A289C"/><stop offset=".96" stop-color="#00092B"/></radialGradient><radialGradient id="A" cx="0" cy="0" r="1" gradientUnits="userSpaceOnUse" gradientTransform="matrix(32.19786 1.80296 -1.8863 33.68633 320.643 87.509)"><stop stop-color="#4A289C"/><stop offset=".96" stop-color="#00092B"/></radialGradient><radialGradient id="B" cx="0" cy="0" r="1" gradientUnits="userSpaceOnUse" gradientTransform="matrix(32.19786 1.80296 -1.8863 33.68633 165.963 95.792)"><stop stop-color="#4A289C"/><stop offset=".96" stop-color="#00092B"/></radialGradient></defs></svg>