<svg width="768" height="438" viewBox="0 0 768 438" fill="none" xmlns="http://www.w3.org/2000/svg">
<path style="mix-blend-mode:screen" d="M1058 282.355C930.181 114.097 682.315 0 397.468 0C91.0449 0 -172.584 132.04 -290 321.495V437.406H1058V282.355Z" fill="url(#paint0_radial_74_6716)"/>
<path style="mix-blend-mode:screen" d="M970.91 274.138C859.611 127.624 643.765 28.2676 395.733 28.2676C128.908 28.2676 -100.648 143.245 -202.895 308.221V409.152H970.91V274.138Z" fill="url(#paint1_radial_74_6716)"/>
<path style="mix-blend-mode:screen" d="M905.821 276.859C806.868 154.784 614.967 71.9961 394.423 71.9961C157.179 71.9961 -46.9149 167.791 -137.822 305.26V389.355H905.821V276.859Z" fill="url(#paint2_radial_74_6716)"/>
<path opacity="0.5" d="M629.905 147.754C628.307 158.986 604.636 164.629 577.025 160.347C549.427 156.065 528.347 143.472 529.945 132.24C531.544 121.007 555.214 115.364 582.825 119.647C610.423 123.929 631.503 136.522 629.905 147.754ZM120.339 132.573C94.2844 142.992 76.3041 160.054 80.2032 170.659C84.0886 181.264 108.379 181.424 134.433 170.992C160.488 160.56 178.468 143.512 174.569 132.907C170.683 122.301 146.393 122.141 120.339 132.573ZM208.504 150.929C189.725 157.933 176.636 169.818 179.253 177.462C181.871 185.106 199.204 185.626 217.983 178.61C236.763 171.606 249.852 159.72 247.234 152.076C244.616 144.432 227.284 143.912 208.504 150.929ZM250.679 95.221C236.487 99.89 226.388 108.348 228.138 114.124C229.874 119.9 242.798 120.807 256.989 116.138C271.18 111.469 281.28 103.012 279.53 97.2354C277.794 91.4591 264.87 90.552 250.679 95.221ZM706.207 161.321C692.609 155.024 679.671 154.411 677.329 159.96C674.987 165.496 684.107 175.088 697.706 181.384C711.305 187.681 724.243 188.294 726.585 182.745C728.927 177.196 719.806 167.617 706.207 161.321ZM641.561 185.106C624.766 183.078 610.547 186.974 609.789 193.817C609.031 200.661 622.038 207.838 638.819 209.865C655.615 211.893 669.833 207.998 670.591 201.154C671.349 194.324 658.343 187.134 641.561 185.106Z" fill="url(#paint3_radial_74_6716)"/>
<path style="mix-blend-mode:screen" d="M142.439 170.245C130.507 175.021 118.961 177.569 109.564 177.916C117.197 176.795 125.712 174.501 134.434 171.006C160.488 160.587 178.468 143.525 174.569 132.92C172.461 127.17 164.346 124.489 153.213 124.916C168.369 122.688 179.984 125.103 182.574 132.159C186.46 142.765 168.493 159.827 142.439 170.245ZM231.927 146.02C239.973 145.873 245.802 147.914 247.234 152.089C249.852 159.733 236.749 171.606 217.984 178.623C212.624 180.624 207.388 181.998 202.566 182.771C209.248 182.651 217.46 181.037 225.989 177.862C244.768 170.859 257.857 158.973 255.239 151.329C253.366 145.873 243.983 144.072 231.927 146.02ZM582.826 119.646C610.423 123.929 631.503 136.522 629.905 147.754C628.968 154.371 620.357 159.053 607.791 160.894C624.601 160.08 636.78 154.944 637.91 146.994C639.508 135.761 618.428 123.168 590.831 118.886C579.491 117.125 568.827 117.045 560.064 118.326C567.008 117.992 574.752 118.393 582.826 119.646ZM714.213 160.56C703.838 155.758 693.876 154.277 688.682 156.292C693.725 156.718 699.884 158.399 706.208 161.321C719.807 167.617 728.941 177.209 726.585 182.745C726.021 184.065 724.849 185.026 723.237 185.653C729.038 186.133 733.337 184.959 734.59 181.984C736.933 176.448 727.812 166.857 714.213 160.56ZM649.566 184.346C642.788 183.532 636.45 183.692 631.228 184.599C634.493 184.519 637.965 184.666 641.561 185.093C658.357 187.12 671.349 194.297 670.592 201.141C670.137 205.223 664.874 208.238 657.158 209.585C669.09 209.291 678.004 205.743 678.597 200.38C679.354 193.55 666.348 186.36 649.566 184.332V184.346ZM267.488 92.2461C273.909 92.2461 278.538 93.9536 279.53 97.2352C281.266 103.011 271.181 111.482 256.989 116.138C253.958 117.139 250.996 117.859 248.185 118.352C253.035 118.352 258.891 117.379 264.994 115.378C279.186 110.709 289.285 102.251 287.535 96.4748C286.171 91.9259 277.877 90.4185 267.488 92.2461Z" fill="url(#paint4_radial_74_6716)"/>
<path opacity="0.5" d="M664.6 207.464C659.406 204.769 652.324 202.648 644.374 201.688C633.903 200.42 624.437 201.461 618.609 204.089C623.804 206.784 630.886 208.905 638.835 209.865C649.307 211.133 658.772 210.092 664.6 207.464Z" fill="url(#paint5_radial_74_6716)"/>
<path opacity="0.5" d="M627.274 152.957C619.435 145.607 603.976 139.083 585.623 136.229C562.683 132.667 542.484 135.962 535.375 143.619C543.215 150.969 558.674 157.493 577.026 160.347C599.966 163.909 620.165 160.614 627.274 152.957Z" fill="url(#paint6_radial_74_6716)"/>
<path opacity="0.5" d="M684.633 173.274C688.105 176.182 692.583 179.01 697.708 181.385C707.353 185.853 716.653 187.441 722.081 186.014C718.609 183.105 714.132 180.277 709.006 177.903C699.362 173.434 690.061 171.846 684.633 173.274Z" fill="url(#paint7_radial_74_6716)"/>
<path opacity="0.5" d="M85.2344 175.981C94.4519 180.851 113.879 179.223 134.436 170.992C152.471 163.775 166.621 153.397 172.339 144.165C163.122 139.296 143.695 140.924 123.138 149.155C105.102 156.372 90.9523 166.75 85.2344 175.981Z" fill="url(#paint8_radial_74_6716)"/>
<path opacity="0.5" d="M253.478 111.803C247.609 113.724 242.47 116.312 238.557 119.073C243.682 119.327 250.185 118.38 256.992 116.138C262.861 114.217 268 111.63 271.913 108.868C266.788 108.615 260.285 109.562 253.478 111.803Z" fill="url(#paint9_radial_74_6716)"/>
<path opacity="0.5" d="M186.463 182.731C193.779 184.572 205.545 183.252 217.987 178.609C228.803 174.567 237.703 168.925 242.843 163.388C235.526 161.547 223.76 162.868 211.318 167.51C200.503 171.553 191.602 177.195 186.463 182.731Z" fill="url(#paint10_radial_74_6716)"/>
<path opacity="0.25" d="M159.234 182.718C160.501 186.947 153.006 193.163 142.494 196.619C131.981 200.074 122.419 199.447 121.151 195.218C119.884 190.989 127.379 184.773 137.892 181.318C148.404 177.862 157.966 178.489 159.234 182.718Z" fill="url(#paint11_radial_74_6716)"/>
<path opacity="0.25" d="M552.556 104.439C551.977 108.828 542.649 111.109 531.737 109.535C520.811 107.961 512.434 103.132 513.013 98.7429C513.591 94.354 522.919 92.0729 533.831 93.647C544.757 95.2211 553.134 100.05 552.556 104.439Z" fill="url(#paint12_radial_74_6716)"/>
<path opacity="0.25" d="M781.298 193.47C779.094 197.245 769.67 195.457 760.259 189.468C750.849 183.478 745.007 175.554 747.211 171.765C749.416 167.99 758.84 169.778 768.25 175.767C777.661 181.757 783.503 189.681 781.298 193.47Z" fill="url(#paint13_radial_74_6716)"/>
<path opacity="0.25" d="M578.567 109.055C578.319 110.922 574.365 111.883 569.722 111.216C565.092 110.549 561.524 108.495 561.772 106.64C562.02 104.773 565.974 103.812 570.617 104.479C575.247 105.146 578.815 107.201 578.567 109.055Z" fill="url(#paint14_radial_74_6716)"/>
<path opacity="0.25" d="M623.69 172.339C623.442 174.207 619.488 175.167 614.845 174.5C610.215 173.833 606.647 171.779 606.895 169.925C607.143 168.057 611.097 167.096 615.74 167.763C620.384 168.43 623.938 170.485 623.69 172.339Z" fill="url(#paint15_radial_74_6716)"/>
<path opacity="0.25" d="M667.56 130.359C667.312 132.226 663.357 133.187 658.714 132.52C654.071 131.853 650.516 129.798 650.764 127.944C651.012 126.076 654.966 125.116 659.61 125.783C664.239 126.45 667.808 128.504 667.56 130.359Z" fill="url(#paint16_radial_74_6716)"/>
<path opacity="0.25" d="M704.485 195.818C703.823 197.565 699.759 197.512 695.405 195.698C691.051 193.883 688.075 191.002 688.736 189.254C689.398 187.507 693.462 187.56 697.816 189.375C702.156 191.189 705.146 194.07 704.485 195.818Z" fill="url(#paint17_radial_74_6716)"/>
<path opacity="0.25" d="M694.814 145.593C694.056 148.501 687.567 149.208 680.319 147.153C673.072 145.099 667.809 141.084 668.567 138.176C669.325 135.268 675.814 134.561 683.061 136.615C690.308 138.669 695.572 142.685 694.814 145.593Z" fill="url(#paint18_radial_74_6716)"/>
<path opacity="0.25" d="M559.284 165.298C559.83 162.332 554.267 158.89 546.858 157.611C539.449 156.332 533 157.7 532.454 160.666C531.908 163.633 537.471 167.074 544.88 168.354C552.289 169.633 558.737 168.265 559.284 165.298Z" fill="url(#paint19_radial_74_6716)"/>
<path opacity="0.25" d="M260.46 128.238C261.108 130.866 256.313 134.427 249.768 136.175C243.21 137.936 237.382 137.215 236.734 134.587C236.087 131.959 240.882 128.398 247.426 126.65C253.984 124.889 259.813 125.61 260.46 128.238Z" fill="url(#paint20_radial_74_6716)"/>
<path opacity="0.25" d="M253.71 178.223C254.358 180.851 249.563 184.413 243.018 186.16C236.46 187.921 230.632 187.201 229.984 184.573C229.337 181.945 234.132 178.383 240.676 176.635C247.234 174.875 253.063 175.595 253.71 178.223Z" fill="url(#paint21_radial_74_6716)"/>
<path opacity="0.25" d="M267.185 166.017C267.585 167.658 264.608 169.872 260.516 170.966C256.438 172.06 252.801 171.62 252.401 169.979C252.002 168.338 254.978 166.124 259.07 165.03C263.162 163.936 266.785 164.376 267.185 166.017Z" fill="url(#paint22_radial_74_6716)"/>
<path opacity="0.25" d="M226.925 100.13C227.325 101.771 224.349 103.985 220.257 105.079C216.178 106.173 212.541 105.733 212.141 104.092C211.742 102.451 214.718 100.237 218.81 99.143C222.888 98.0492 226.526 98.4894 226.925 100.13Z" fill="url(#paint23_radial_74_6716)"/>
<path opacity="0.25" d="M175.257 166.017C175.657 167.658 172.681 169.872 168.589 170.966C164.497 172.06 160.873 171.62 160.473 169.979C160.074 168.338 163.05 166.124 167.142 165.03C171.22 163.936 174.858 164.376 175.257 166.017Z" fill="url(#paint24_radial_74_6716)"/>
<path opacity="0.25" d="M317.267 121.354C318.535 125.583 311.04 131.799 300.527 135.254C290.014 138.709 280.452 138.082 279.185 133.854C277.917 129.625 285.412 123.408 295.925 119.953C306.438 116.498 316 117.125 317.267 121.354Z" fill="url(#paint25_radial_74_6716)"/>
<path opacity="0.25" d="M333.292 104.652C333.692 106.293 330.716 108.507 326.624 109.601C322.546 110.695 318.908 110.255 318.509 108.614C318.109 106.973 321.085 104.759 325.177 103.665C329.269 102.571 332.893 103.011 333.292 104.652Z" fill="url(#paint26_radial_74_6716)"/>
<path opacity="0.25" d="M178.111 112.95C178.51 114.591 175.534 116.805 171.442 117.899C167.364 118.993 163.727 118.553 163.327 116.912C162.927 115.271 165.903 113.057 169.996 111.963C174.074 110.869 177.711 111.309 178.111 112.95Z" fill="url(#paint27_radial_74_6716)"/>
<defs>
<radialGradient id="paint0_radial_74_6716" cx="0" cy="0" r="1" gradientUnits="userSpaceOnUse" gradientTransform="translate(372.699 -3.28939) scale(693.934 755.859)">
<stop stop-color="#4A289C" stop-opacity="0"/>
<stop offset="0.96" stop-color="#00092B"/>
</radialGradient>
<radialGradient id="paint1_radial_74_6716" cx="0" cy="0" r="1" gradientUnits="userSpaceOnUse" gradientTransform="translate(373.811 25.4867) scale(604.262 658.185)">
<stop stop-color="#4A289C" stop-opacity="0"/>
<stop offset="0.96" stop-color="#00092B"/>
</radialGradient>
<radialGradient id="paint2_radial_74_6716" cx="0" cy="0" r="1" gradientUnits="userSpaceOnUse" gradientTransform="translate(358.394 1.76218) scale(537.244 548.031)">
<stop stop-color="#4A289C"/>
<stop offset="0.96" stop-color="#00092B"/>
</radialGradient>
<radialGradient id="paint3_radial_74_6716" cx="0" cy="0" r="1" gradientUnits="userSpaceOnUse" gradientTransform="translate(407.16 62.4768) rotate(8.82504) scale(300.902 312.453)">
<stop stop-color="#4A289C"/>
<stop offset="0.96" stop-color="#00092B"/>
</radialGradient>
<radialGradient id="paint4_radial_74_6716" cx="0" cy="0" r="1" gradientUnits="userSpaceOnUse" gradientTransform="translate(419.365 150.025) scale(223.817 234.115)">
<stop stop-color="#4A289C"/>
<stop offset="0.96" stop-color="#00092B"/>
</radialGradient>
<radialGradient id="paint5_radial_74_6716" cx="0" cy="0" r="1" gradientUnits="userSpaceOnUse" gradientTransform="translate(495.46 0.0384452) scale(276.5 289.222)">
<stop stop-color="#4A289C"/>
<stop offset="0.96" stop-color="#00092B"/>
</radialGradient>
<radialGradient id="paint6_radial_74_6716" cx="0" cy="0" r="1" gradientUnits="userSpaceOnUse" gradientTransform="translate(495.458 0.0390512) scale(276.5 289.222)">
<stop stop-color="#4A289C"/>
<stop offset="0.96" stop-color="#00092B"/>
</radialGradient>
<radialGradient id="paint7_radial_74_6716" cx="0" cy="0" r="1" gradientUnits="userSpaceOnUse" gradientTransform="translate(495.459 0.0387349) scale(276.499 289.222)">
<stop stop-color="#4A289C"/>
<stop offset="0.96" stop-color="#00092B"/>
</radialGradient>
<radialGradient id="paint8_radial_74_6716" cx="0" cy="0" r="1" gradientUnits="userSpaceOnUse" gradientTransform="translate(495.459 0.0384746) scale(276.499 289.222)">
<stop stop-color="#4A289C"/>
<stop offset="0.96" stop-color="#00092B"/>
</radialGradient>
<radialGradient id="paint9_radial_74_6716" cx="0" cy="0" r="1" gradientUnits="userSpaceOnUse" gradientTransform="translate(495.46 0.0388324) scale(276.499 289.222)">
<stop stop-color="#4A289C"/>
<stop offset="0.96" stop-color="#00092B"/>
</radialGradient>
<radialGradient id="paint10_radial_74_6716" cx="0" cy="0" r="1" gradientUnits="userSpaceOnUse" gradientTransform="translate(495.461 0.0384889) scale(276.5 289.222)">
<stop stop-color="#4A289C"/>
<stop offset="0.96" stop-color="#00092B"/>
</radialGradient>
<radialGradient id="paint11_radial_74_6716" cx="0" cy="0" r="1" gradientUnits="userSpaceOnUse" gradientTransform="translate(131.323 139.936) scale(84.3633 88.2452)">
<stop stop-color="#4A289C"/>
<stop offset="0.96" stop-color="#00092B"/>
</radialGradient>
<radialGradient id="paint12_radial_74_6716" cx="0" cy="0" r="1" gradientUnits="userSpaceOnUse" gradientTransform="translate(563.919 61.8261) rotate(26.278) scale(85.3136 88.0866)">
<stop stop-color="#4A289C"/>
<stop offset="0.96" stop-color="#00092B"/>
</radialGradient>
<radialGradient id="paint13_radial_74_6716" cx="0" cy="0" r="1" gradientUnits="userSpaceOnUse" gradientTransform="translate(830.871 188.822) rotate(50.0516) scale(87.1892 86.242)">
<stop stop-color="#4A289C"/>
<stop offset="0.96" stop-color="#00092B"/>
</radialGradient>
<radialGradient id="paint14_radial_74_6716" cx="0" cy="0" r="1" gradientUnits="userSpaceOnUse" gradientTransform="translate(592.611 94.7535) rotate(26.278) scale(36.2197 37.3969)">
<stop stop-color="#4A289C"/>
<stop offset="0.96" stop-color="#00092B"/>
</radialGradient>
<radialGradient id="paint15_radial_74_6716" cx="0" cy="0" r="1" gradientUnits="userSpaceOnUse" gradientTransform="translate(635.633 157.181) rotate(26.278) scale(36.2197 37.3969)">
<stop stop-color="#4A289C"/>
<stop offset="0.96" stop-color="#00092B"/>
</radialGradient>
<radialGradient id="paint16_radial_74_6716" cx="0" cy="0" r="1" gradientUnits="userSpaceOnUse" gradientTransform="translate(682.646 116.495) rotate(26.278) scale(36.2197 37.3969)">
<stop stop-color="#4A289C"/>
<stop offset="0.96" stop-color="#00092B"/>
</radialGradient>
<radialGradient id="paint17_radial_74_6716" cx="0" cy="0" r="1" gradientUnits="userSpaceOnUse" gradientTransform="translate(737.36 197.975) rotate(40.4142) scale(36.5858 37.0443)">
<stop stop-color="#4A289C"/>
<stop offset="0.96" stop-color="#00092B"/>
</radialGradient>
<radialGradient id="paint18_radial_74_6716" cx="0" cy="0" r="1" gradientUnits="userSpaceOnUse" gradientTransform="translate(722.361 127.567) rotate(33.7398) scale(58.4076 59.7227)">
<stop stop-color="#4A289C"/>
<stop offset="0.96" stop-color="#00092B"/>
</radialGradient>
<radialGradient id="paint19_radial_74_6716" cx="0" cy="0" r="1" gradientUnits="userSpaceOnUse" gradientTransform="translate(568.873 138.963) rotate(27.5834) scale(58.0786 59.5386)">
<stop stop-color="#4A289C"/>
<stop offset="0.96" stop-color="#00092B"/>
</radialGradient>
<radialGradient id="paint20_radial_74_6716" cx="0" cy="0" r="1" gradientUnits="userSpaceOnUse" gradientTransform="translate(242.459 100.949) rotate(3.205) scale(51.7669 54.1602)">
<stop stop-color="#4A289C"/>
<stop offset="0.96" stop-color="#00092B"/>
</radialGradient>
<radialGradient id="paint21_radial_74_6716" cx="0" cy="0" r="1" gradientUnits="userSpaceOnUse" gradientTransform="translate(235.309 150.816) rotate(3.205) scale(51.7669 54.1602)">
<stop stop-color="#4A289C"/>
<stop offset="0.96" stop-color="#00092B"/>
</radialGradient>
<radialGradient id="paint22_radial_74_6716" cx="0" cy="0" r="1" gradientUnits="userSpaceOnUse" gradientTransform="translate(254.26 148.725) rotate(3.20501) scale(32.2482 33.7391)">
<stop stop-color="#4A289C"/>
<stop offset="0.96" stop-color="#00092B"/>
</radialGradient>
<radialGradient id="paint23_radial_74_6716" cx="0" cy="0" r="1" gradientUnits="userSpaceOnUse" gradientTransform="translate(214.72 83.0008) rotate(3.20501) scale(32.2482 33.7391)">
<stop stop-color="#4A289C"/>
<stop offset="0.96" stop-color="#00092B"/>
</radialGradient>
<radialGradient id="paint24_radial_74_6716" cx="0" cy="0" r="1" gradientUnits="userSpaceOnUse" gradientTransform="translate(162.675 148.738) rotate(3.20501) scale(32.2482 33.7391)">
<stop stop-color="#4A289C"/>
<stop offset="0.96" stop-color="#00092B"/>
</radialGradient>
<radialGradient id="paint25_radial_74_6716" cx="0" cy="0" r="1" gradientUnits="userSpaceOnUse" gradientTransform="translate(288.738 78.7118) scale(84.3634 88.2452)">
<stop stop-color="#4A289C"/>
<stop offset="0.96" stop-color="#00092B"/>
</radialGradient>
<radialGradient id="paint26_radial_74_6716" cx="0" cy="0" r="1" gradientUnits="userSpaceOnUse" gradientTransform="translate(320.643 87.5089) rotate(3.205) scale(32.2483 33.7391)">
<stop stop-color="#4A289C"/>
<stop offset="0.96" stop-color="#00092B"/>
</radialGradient>
<radialGradient id="paint27_radial_74_6716" cx="0" cy="0" r="1" gradientUnits="userSpaceOnUse" gradientTransform="translate(165.963 95.7922) rotate(3.205) scale(32.2483 33.7391)">
<stop stop-color="#4A289C"/>
<stop offset="0.96" stop-color="#00092B"/>
</radialGradient>
</defs>
</svg>
