<svg xmlns="http://www.w3.org/2000/svg" width="160" height="88" fill="none"><path fill="#fff" d="M129.764 42.115v3.364h-4.69v-3.364h-2.308v8.89h2.308v-3.589h4.69v3.59h2.321v-8.89h-2.321Z"/><path fill="#fff" fill-rule="evenodd" d="M89.364 41.914c.74 0 1.518.392 1.9 1.2l3.778 7.892h-2.457l-.827-1.878H86.97l-.827 1.878h-2.456l3.777-7.892a2.088 2.088 0 0 1 1.9-1.2Zm-.186 2.21-1.42 3.221h3.21l-1.42-3.22a.185.185 0 0 0-.184-.131c-.062 0-.136.035-.186.13Z" clip-rule="evenodd"/><path fill="#fff" d="M63.75 40.512c-1.086 0-1.778.558-2.284 1.675l-3.011 6.68-3.012-6.68c-.506-1.117-1.198-1.675-2.284-1.675-1.012 0-2.061.7-2.061 2.21v8.284h2.308V42.96l3.037 6.632c.407.927 1.061 1.51 2.012 1.51.95 0 1.604-.583 2.012-1.51l3.036-6.632v8.046h2.308v-8.272c0-1.521-1.049-2.222-2.061-2.222ZM69.86 49.127a.191.191 0 0 1-.198-.19v-1.58h5.764v-1.819h-5.764v-1.355c0-.107.086-.19.197-.19h5.703v-1.878h-6.838c-.803 0-1.37.642-1.37 1.32v6.227c0 .678.58 1.32 1.37 1.32h6.838v-1.878H69.86v.023ZM79.488 51.006v-6.81c0-.107.086-.19.198-.19h5.702v-1.879H78.55c-.802 0-1.37.642-1.37 1.32v7.559h2.308Z"/><path fill="#fff" fill-rule="evenodd" d="M116.347 41.986c3.494 0 4.888 1.45 4.888 4.564 0 3.066-1.419 4.54-4.912 4.54h-.766c-3.493 0-4.912-1.474-4.912-4.54 0-3.114 1.382-4.564 4.888-4.564h.814Zm-.779 7.261h.741c1.913 0 2.678-.832 2.678-2.698v-.011c0-1.807-.715-2.698-2.678-2.698h-.741c-2.024 0-2.678.89-2.678 2.697v.012c0 1.866.753 2.698 2.678 2.698ZM99.62 40.725h4.58c3.407 0 4.777 1.664 4.79 4.564 0 .452-.037.868-.099 1.26-.358 2.056-1.617 3.316-4.814 3.316h-1v1.14h-2.308v-1.14h-1.013c-3.197 0-4.456-1.26-4.814-3.316a6.788 6.788 0 0 1-.098-1.26c0-2.9 1.358-4.564 4.777-4.564Zm1.135 7.261h-1.062c-1.567 0-2.123-.558-2.468-1.438-.136-.344-.136-.772-.136-1.26 0-1.89.913-2.697 2.246-2.697h1.42v5.395Zm5.84-1.438c-.345.88-.913 1.438-2.468 1.438h-1.062v-5.395h1.42c1.333 0 2.246.796 2.246 2.697 0 .488 0 .916-.136 1.26ZM38.321 46.478V37.29c4.568.535 8.11 4.291 8.123 8.831 0 4.92-4.148 8.914-9.258 8.914-.284 0-.568-.012-.852-.035v-7.702c0-.048.037-.095.099-.095h1.135c.408 0 .753-.321.753-.725Zm-.2 4.516c-.641 0-1.16-.499-1.16-1.117s.519-1.117 1.16-1.117c.643 0 1.161.5 1.161 1.117 0 .618-.518 1.117-1.16 1.117Zm1.557-1.117c0 .618.519 1.117 1.16 1.117.642 0 1.16-.499 1.16-1.117s-.518-1.117-1.16-1.117c-.642 0-1.16.5-1.16 1.117Zm2.715 0c0 .618.519 1.117 1.16 1.117.642 0 1.16-.499 1.16-1.117s-.518-1.117-1.16-1.117c-.641 0-1.16.5-1.16 1.117Z" clip-rule="evenodd"/><path fill="#fff" fill-rule="evenodd" d="M27.916 46.134c0-4.92 4.147-8.914 9.258-8.914h.025v8.819c0 .059-.05.095-.1.095H35.94a.752.752 0 0 0-.728.713v7.999c-4.172-.868-7.295-4.434-7.295-8.712Zm6.32-2.686c0 .618.519 1.117 1.16 1.117.642 0 1.16-.5 1.16-1.117 0-.618-.518-1.117-1.16-1.117-.642 0-1.16.499-1.16 1.117Z" clip-rule="evenodd"/></svg>