<svg width="160" height="88" viewBox="0 0 160 88" fill="none" xmlns="http://www.w3.org/2000/svg">
<path d="M57.0931 37.293C56.0141 37.293 54.7348 38.412 53.6797 40.2933C52.58 42.2418 51.9238 44.6538 51.9238 46.7484C51.9238 49.8149 53.5196 52.9073 57.0931 52.9073C60.6633 52.9073 62.2621 49.8149 62.2621 46.7484C62.2621 44.6538 61.6064 42.2418 60.5121 40.2933C59.4476 38.412 58.1689 37.293 57.0931 37.293Z" fill="white"/>
<path d="M85.0059 41.8931H88.6244V52.0704H92.5012V41.8931H96.1196V38.1289H85.006L85.0059 41.8931Z" fill="white"/>
<path d="M104.39 41.8941H110.077V38.1299H104.391C99.1662 38.1299 96.377 40.932 96.377 45.1006C96.377 49.2691 99.1662 52.0712 104.391 52.0712H110.077V48.3071H104.39C101.973 48.3071 100.383 47.3747 100.383 45.1006C100.383 42.8264 101.973 41.8941 104.39 41.8941Z" fill="white"/>
<path d="M77.1214 38.1289L75.0547 46.4504L72.9877 38.1289H66.1387V52.0704H70.0156V40.7305L72.8321 52.0704H77.2772L80.0955 40.7234V52.0704H83.9723V38.1289H77.1214Z" fill="white"/>
</svg>
