<svg width="12" height="20" fill="none" xmlns="http://www.w3.org/2000/svg"><path d="M6.018 3.018c1.223 0 2.214.958 2.214 2.14 0 1.18-.99 2.138-2.214 2.138-1.223 0-2.214-.957-2.214-2.139 0-1.181.992-2.139 2.214-2.139Zm0 7.297c2.949 0 5.339-2.315 5.339-5.158C11.357 2.315 8.96 0 6.018 0 3.076 0 .68 2.315.68 5.157c0 2.843 2.396 5.158 5.338 5.158Zm2.16 4.213a10.195 10.195 0 0 0 3.094-1.23c.73-.447.947-1.381.485-2.087-.462-.705-1.43-.915-2.16-.469a6.992 6.992 0 0 1-7.194 0c-.73-.446-1.698-.236-2.16.47a1.482 1.482 0 0 0 .485 2.086 9.957 9.957 0 0 0 3.094 1.23L.85 17.418a1.476 1.476 0 0 0 0 2.139c.611.59 1.602.59 2.214 0L6 16.715l2.936 2.836c.611.59 1.602.591 2.214 0a1.476 1.476 0 0 0 .001-2.138v-.001l-2.991-2.89" fill="#fff"/></svg>