<svg xmlns="http://www.w3.org/2000/svg" width="160" height="88" fill="none"><path fill="#fff" d="M31.584 49.426v-9.264h2.458v1.031c.27-.39.631-.709 1.053-.926a3.093 3.093 0 0 1 1.405-.32c.348-.011.694.055 1.013.196v2.151a2.968 2.968 0 0 0-.596-.186 3.377 3.377 0 0 0-.647-.061 2.457 2.457 0 0 0-1.298.35c-.396.25-.717.601-.93 1.018v6.01h-2.458ZM42.39 49.604a3.75 3.75 0 0 1-1.893-.471 3.318 3.318 0 0 1-1.289-1.316 3.914 3.914 0 0 1-.461-1.912v-5.742h2.417v5.387a1.944 1.944 0 0 0 .527 1.422 1.893 1.893 0 0 0 1.404.527 2.37 2.37 0 0 0 1.1-.242 2.31 2.31 0 0 0 .807-.676v-6.418h2.435v9.263h-2.435v-.746a3.848 3.848 0 0 1-2.613.924ZM53.623 49.55a4.543 4.543 0 0 1-2.375-.64 4.797 4.797 0 0 1-1.696-1.716 4.66 4.66 0 0 1-.632-2.409 4.707 4.707 0 0 1 2.348-4.117 4.754 4.754 0 0 1 2.433-.63c.446 0 .89.065 1.318.193.423.126.826.308 1.2.543v-3.796l2.434-.408v12.856h-2.4v-.764a4.154 4.154 0 0 1-2.63.889Zm.392-2.08c.42.004.838-.074 1.229-.23.369-.148.702-.373.978-.66v-3.609a2.809 2.809 0 0 0-.982-.632 3.317 3.317 0 0 0-1.229-.224 2.76 2.76 0 0 0-1.378.352 2.589 2.589 0 0 0-.969.952 2.786 2.786 0 0 0 .01 2.738c.24.397.577.727.979.958.413.239.884.361 1.362.354ZM63.505 49.586c-.6.01-1.197-.114-1.743-.364a2.898 2.898 0 0 1-1.19-1.006 2.59 2.59 0 0 1-.427-1.476 2.429 2.429 0 0 1 .995-2.07c.664-.493 1.588-.739 2.773-.739a6.868 6.868 0 0 1 2.282.373v-.675c0-.527-.165-.936-.497-1.21-.332-.274-.818-.41-1.457-.41a4.89 4.89 0 0 0-1.263.189c-.535.151-1.058.344-1.564.578l-.878-1.815c.681-.3 1.386-.544 2.107-.729a8.2 8.2 0 0 1 1.99-.25c1.267 0 2.245.3 2.933.9.688.6 1.032 1.444 1.03 2.533v6.01h-2.408v-.658c-.37.28-.786.49-1.23.624-.472.134-.961.2-1.453.195Zm-1.053-2.898a.971.971 0 0 0 .462.844c.37.224.797.332 1.228.311.376.004.75-.044 1.112-.142.336-.095.652-.252.932-.462v-1.352a3.94 3.94 0 0 0-.923-.276 6.34 6.34 0 0 0-1.031-.08 2.395 2.395 0 0 0-1.306.303.961.961 0 0 0-.47.853h-.004ZM78.681 53.229a9.562 9.562 0 0 1-2.08-.221 7.835 7.835 0 0 1-1.812-.633l.86-1.883c.484.236.99.424 1.51.56.482.125.977.188 1.475.189.71 0 1.252-.158 1.627-.473.372-.314.56-.78.56-1.396v-.73a4.247 4.247 0 0 1-2.542.82 4.647 4.647 0 0 1-4.07-2.339 4.678 4.678 0 0 1-.623-2.392c-.01-.837.208-1.66.632-2.382a4.631 4.631 0 0 1 1.715-1.69 4.804 4.804 0 0 1 2.435-.621c.438.003.872.068 1.29.193.417.12.813.303 1.174.543v-.612h2.417v9.246c0 1.222-.394 2.164-1.183 2.827-.79.663-1.917.994-3.385.994Zm-.018-5.814a3.18 3.18 0 0 0 1.208-.223c.356-.14.678-.355.943-.63v-3.609a2.76 2.76 0 0 0-.951-.614 3.264 3.264 0 0 0-1.19-.215 2.712 2.712 0 0 0-1.37.352c-.396.225-.727.55-.959.943-.237.4-.358.859-.35 1.324-.007.48.114.953.35 1.37.229.4.56.732.96.96.415.233.884.352 1.36.344v-.002ZM88.101 49.587c-.6.01-1.195-.114-1.742-.364a2.898 2.898 0 0 1-1.19-1.007 2.59 2.59 0 0 1-.426-1.475 2.428 2.428 0 0 1 .995-2.071c.664-.492 1.588-.738 2.772-.738a6.868 6.868 0 0 1 2.282.373v-.675c0-.527-.166-.936-.498-1.21-.332-.274-.817-.41-1.457-.41-.428.008-.852.071-1.263.189-.535.15-1.057.344-1.562.578l-.878-1.815c.68-.3 1.383-.545 2.103-.73a8.22 8.22 0 0 1 1.991-.25c1.268 0 2.245.3 2.932.9.687.599 1.031 1.443 1.032 2.532v6.013h-2.407v-.66a3.9 3.9 0 0 1-1.229.624c-.473.135-.963.201-1.455.196Zm-1.053-2.899a.971.971 0 0 0 .461.845c.37.224.798.333 1.23.311.374.004.747-.044 1.109-.142.337-.095.654-.251.934-.462v-1.353a3.928 3.928 0 0 0-.925-.276 6.352 6.352 0 0 0-1.03-.079 2.405 2.405 0 0 0-1.307.303.958.958 0 0 0-.458.853h-.014ZM95.031 49.426v-9.263h2.435v.702a3.745 3.745 0 0 1 4.038-.527c.47.239.873.59 1.173 1.023a3.82 3.82 0 0 1 1.352-1.031c.543-.24 1.13-.36 1.724-.352a3.485 3.485 0 0 1 1.82.473c.526.31.957.76 1.245 1.298.311.588.467 1.246.453 1.91v5.762h-2.438V44.04c0-.606-.157-1.082-.471-1.431a1.616 1.616 0 0 0-1.271-.527 2.26 2.26 0 0 0-1.001.223 1.986 1.986 0 0 0-.772.702c.01.108.023.215.035.32.012.113.018.226.017.34v5.76h-2.44V44.04c0-.606-.156-1.082-.47-1.431a1.633 1.633 0 0 0-1.272-.527 2.219 2.219 0 0 0-.986.212c-.296.148-.55.369-.737.641v6.492H95.03ZM115.667 49.604a4.976 4.976 0 0 1-4.301-2.373 4.57 4.57 0 0 1-.658-2.433 4.763 4.763 0 0 1 2.345-4.16 4.633 4.633 0 0 1 2.4-.64 4.388 4.388 0 0 1 2.374.648 4.58 4.58 0 0 1 1.634 1.769c.407.79.612 1.67.595 2.559v.641h-6.861c.104.365.284.704.527.994.246.294.556.529.906.685.363.162.757.244 1.155.24.387.003.772-.06 1.138-.187a2.46 2.46 0 0 0 .908-.541l1.599 1.458a5.567 5.567 0 0 1-3.768 1.333l.007.007Zm-2.507-5.726h4.516a2.62 2.62 0 0 0-.473-.968 2.222 2.222 0 0 0-1.785-.88 2.354 2.354 0 0 0-1.031.221 2.084 2.084 0 0 0-.774.64 2.792 2.792 0 0 0-.453.987ZM125.086 49.604a8.059 8.059 0 0 1-2.337-.329 5.957 5.957 0 0 1-1.894-.934l1.21-1.636c.479.328.995.596 1.537.802.47.173.966.262 1.466.265.452.02.902-.074 1.307-.274.324-.185.487-.425.488-.72a.686.686 0 0 0-.276-.575 1.884 1.884 0 0 0-.877-.304l-1.781-.26c-.913-.143-1.609-.442-2.089-.899a2.362 2.362 0 0 1-.552-.825 2.36 2.36 0 0 1-.168-.979 2.618 2.618 0 0 1 .472-1.565c.341-.46.806-.812 1.342-1.014a5.33 5.33 0 0 1 2.026-.35 7.128 7.128 0 0 1 1.999.282c.651.194 1.266.49 1.822.878l-1.174 1.581a6.052 6.052 0 0 0-1.466-.694 4.761 4.761 0 0 0-1.394-.214 2.004 2.004 0 0 0-1.053.25.746.746 0 0 0-.335.984c.051.1.127.187.219.252.291.18.62.29.96.321l1.777.25c.925.13 1.627.426 2.107.889a2.32 2.32 0 0 1 .728 1.756 2.484 2.484 0 0 1-.526 1.581c-.384.478-.882.85-1.449 1.084a5.155 5.155 0 0 1-2.089.397ZM67.266 35.98l-1.72-1.72-2.444 2.445 1.72 1.721 2.444-2.445Z"/></svg>