<svg xmlns="http://www.w3.org/2000/svg" width="160" height="88" fill="none"><path fill="#fff" d="M58.698 40.218c.494.627.912 1.308 1.245 2.029L50.482 49.1l-3.955-2.435v-2.93l3.955 2.435 8.216-5.952ZM42.491 46.458c0-.132.004-.263.01-.392l-2.396-.116a10.024 10.024 0 0 0 .776 4.414 10.168 10.168 0 0 0 2.253 3.309l1.7-1.67a7.813 7.813 0 0 1-1.735-2.543 7.704 7.704 0 0 1-.608-3.002ZM50.48 38.609c.133 0 .266.005.399.01l.12-2.355a10.519 10.519 0 0 0-4.495.762 10.372 10.372 0 0 0-3.37 2.215l1.7 1.67a7.97 7.97 0 0 1 2.59-1.705 8.08 8.08 0 0 1 3.056-.597ZM50.48 54.307c-.133 0-.266 0-.4-.01l-.12 2.354a10.513 10.513 0 0 0 4.494-.762 10.368 10.368 0 0 0 3.367-2.215l-1.696-1.67c-.74.73-1.62 1.31-2.589 1.705a8.084 8.084 0 0 1-3.056.598Z"/><path fill="#fff" d="m54.982 39.979 2.02-1.463a10.455 10.455 0 0 0-6.525-2.264v2.357a8.045 8.045 0 0 1 4.505 1.37ZM60.866 46.458a10.099 10.099 0 0 0-.163-1.83l-2.236 1.62v.21a7.71 7.71 0 0 1-.686 3.183 7.834 7.834 0 0 1-1.945 2.634l1.613 1.75a10.19 10.19 0 0 0 2.527-3.426c.589-1.304.892-2.715.89-4.141ZM50.481 54.306c-1.116 0-2.22-.23-3.24-.675a7.967 7.967 0 0 1-2.68-1.91l-1.782 1.583a10.354 10.354 0 0 0 3.488 2.484c1.327.579 2.763.877 4.214.875v-2.357ZM45.123 40.64l-1.612-1.75a10.188 10.188 0 0 0-2.528 3.427 10.026 10.026 0 0 0-.891 4.14h2.4c-.001-1.096.233-2.18.686-3.182a7.836 7.836 0 0 1 1.945-2.634ZM100.033 42.09l2.972-2.128h-9.946v12.782h9.946v-2.127h-7.108v-3.274h6.064v-2.127h-6.064v-3.127h4.136ZM86.366 44.942h-3.453v-2.853h5.51l2.971-2.134H80.076v12.782h5.925c3.321 0 5.227-1.463 5.227-4.013 0-2.44-1.726-3.782-4.862-3.782Zm-.493 5.667h-2.96v-3.541h2.96c1.796 0 2.639.593 2.639 1.77 0 1.178-.897 1.771-2.64 1.771ZM110.317 39.96h-5.415v12.782h2.838v-3.62h2.577c3.454 0 5.591-1.767 5.591-4.588s-2.137-4.574-5.591-4.574Zm-.06 7.033h-2.517v-4.904h2.517c1.817 0 2.819.871 2.819 2.453 0 1.581-1.002 2.45-2.819 2.45ZM75.82 49.726a5.071 5.071 0 0 1-2.389.58c-2.495 0-4.305-1.73-4.305-4.113 0-2.383 1.81-4.117 4.305-4.117.9-.014 1.78.25 2.515.757l1.985-1.42-.135-.093c-1.158-.989-2.705-1.513-4.476-1.513-1.92 0-3.662.628-4.906 1.77a6.169 6.169 0 0 0-1.461 2.08 6.02 6.02 0 0 0-.485 2.472 6.218 6.218 0 0 0 .483 2.5 6.37 6.37 0 0 0 1.451 2.118c1.25 1.188 2.988 1.842 4.895 1.842 1.993 0 3.735-.675 4.914-1.904l-1.777-1.286-.615.327Z"/></svg>