<svg width="106" height="107" fill="none" xmlns="http://www.w3.org/2000/svg"><path d="M46.634 106.652c-.519 0-1.05-.051-1.582-.165a7.793 7.793 0 0 1-6.012-5.67l-7.05-26.668-25.972-9.303a7.771 7.771 0 0 1-5.126-6.468 7.791 7.791 0 0 1 3.531-7.467l23.188-14.948.823-27.567a7.775 7.775 0 0 1 4.569-6.886 7.776 7.776 0 0 1 8.189 1.051L62.569 19.99l26.479-7.734c2.886-.835 5.923 0 7.948 2.215 2.026 2.215 2.62 5.316 1.532 8.113l-9.974 25.72 15.543 22.794c1.683 2.481 1.823 5.646.342 8.253a7.763 7.763 0 0 1-7.24 3.962L69.657 81.78l-16.871 21.821a7.756 7.756 0 0 1-6.164 3.037l.012.013ZM11.005 57.227l24.504 8.783a7.841 7.841 0 0 1 4.923 5.367l6.658 25.162 15.922-20.593a7.835 7.835 0 0 1 6.62-3.025l25.985 1.443L80.96 52.86a7.818 7.818 0 0 1-.835-7.227l9.404-24.264-24.985 7.303a7.852 7.852 0 0 1-7.138-1.442L37.23 10.788l-.784 26.01a7.825 7.825 0 0 1-3.582 6.341l-21.872 14.1.013-.012Z" fill="#FFF8C4"/></svg>