<svg width="17" height="15" fill="none" xmlns="http://www.w3.org/2000/svg"><path d="M1.169 6.457c4.563-2.116 7.606-3.512 9.129-4.186C14.645.346 15.548.01 16.137 0c.13-.003.419.031.607.193.158.137.201.322.222.451.021.13.047.426.026.656-.235 2.636-1.255 9.031-1.773 11.983-.22 1.249-.652 1.668-1.07 1.709-.909.089-1.6-.64-2.48-1.255-1.377-.961-2.156-1.56-3.493-2.498-1.546-1.084-.544-1.68.337-2.654.23-.255 4.236-4.134 4.313-4.486.01-.044.02-.208-.072-.295-.092-.086-.227-.057-.324-.033-.139.033-2.34 1.582-6.603 4.647-.625.456-1.191.679-1.698.667-.559-.013-1.634-.336-2.433-.613-.98-.34-1.76-.519-1.692-1.095.035-.3.424-.607 1.165-.92Z" fill="#fff"/></svg>