<svg width="160" height="88" fill="none" xmlns="http://www.w3.org/2000/svg"><path fill-rule="evenodd" clip-rule="evenodd" d="M92.837 58.291h-26.41c-.6 0-1.085-.486-1.085-1.085V30.794c0-.6.486-1.085 1.085-1.085h26.41c.6 0 1.085.485 1.085 1.085v26.412c0 .6-.486 1.085-1.085 1.085Zm-5.085-19.593h-2.248a.173.173 0 0 0-.174.171v10.26c0 .093.078.17.174.17h2.248a.173.173 0 0 0 .175-.17v-10.26a.173.173 0 0 0-.175-.17Zm-7.677 0H71.51a.172.172 0 0 0-.173.171v10.26c0 .093.077.17.173.17h2.25a.174.174 0 0 0 .174-.17v-8.053c0-.093.078-.17.174-.17h4.845c1.362 0 1.749 1.044 1.749 1.717v6.506c0 .093.078.17.174.17h2.248a.173.173 0 0 0 .174-.17V41.85c0-.6-.072-1.463-.847-2.223-.81-.793-1.55-.929-2.376-.929Zm-3.937 4.087h2.361c.096 0 .174.076.174.17v6.175c0 .093-.078.17-.174.17h-2.361a.173.173 0 0 1-.175-.17v-6.175c0-.094.079-.17.175-.17Z" fill="#fff"/></svg>