<svg width="18" height="14" viewBox="0 0 18 14" fill="none" xmlns="http://www.w3.org/2000/svg">
<path d="M17.8207 3.39921C17.8207 3.39921 17.6449 2.1582 17.1035 1.61328C16.418 0.896088 15.6516 0.892572 15.3 0.850384C12.7828 0.667572 9.00352 0.667572 9.00352 0.667572H8.99648C8.99648 0.667572 5.21719 0.667572 2.7 0.850384C2.34844 0.892572 1.58203 0.896088 0.896484 1.61328C0.355078 2.1582 0.182812 3.39921 0.182812 3.39921C0.182812 3.39921 0 4.8582 0 6.31367V7.67773C0 9.1332 0.179297 10.5922 0.179297 10.5922C0.179297 10.5922 0.355078 11.8332 0.892969 12.3781C1.57852 13.0953 2.47852 13.0707 2.8793 13.148C4.3207 13.2852 9 13.3273 9 13.3273C9 13.3273 12.7828 13.3203 15.3 13.141C15.6516 13.0988 16.418 13.0953 17.1035 12.3781C17.6449 11.8332 17.8207 10.5922 17.8207 10.5922C17.8207 10.5922 18 9.13671 18 7.67773V6.31367C18 4.8582 17.8207 3.39921 17.8207 3.39921ZM7.14023 9.33359V4.2746L12.0023 6.81288L7.14023 9.33359Z" fill="white"/>
</svg>
